<?xml version="1.0" encoding="UTF-8"?>
<svg xmlns="http://www.w3.org/2000/svg" xmlns:xlink="http://www.w3.org/1999/xlink" viewBox="0 0 30 30" width="30px" height="30px">
<defs>
<linearGradient id="linear0" gradientUnits="userSpaceOnUse" x1="88.6875" y1="21.5" x2="88.6875" y2="150.5" gradientTransform="matrix(0.174419,0,0,0.174419,0,0)">
<stop offset="0" style="stop-color:rgb(0%,77.64706%,100%);stop-opacity:1;"/>
<stop offset="1" style="stop-color:rgb(0%,44.705883%,100%);stop-opacity:1;"/>
</linearGradient>
<linearGradient id="linear1" gradientUnits="userSpaceOnUse" x1="64.392502" y1="115.938751" x2="64.392502" y2="120.9375" gradientTransform="matrix(0.174419,0,0,0.174419,0,0)">
<stop offset="0" style="stop-color:rgb(43.921569%,87.450981%,100%);stop-opacity:1;"/>
<stop offset="1" style="stop-color:rgb(43.921569%,68.627453%,100%);stop-opacity:1;"/>
</linearGradient>
<linearGradient id="linear2" gradientUnits="userSpaceOnUse" x1="76.405632" y1="112.660004" x2="76.405632" y2="116.691254" gradientTransform="matrix(0.174419,0,0,0.174419,0,0)">
<stop offset="0" style="stop-color:rgb(43.921569%,87.450981%,100%);stop-opacity:1;"/>
<stop offset="1" style="stop-color:rgb(43.921569%,68.627453%,100%);stop-opacity:1;"/>
</linearGradient>
<linearGradient id="linear3" gradientUnits="userSpaceOnUse" x1="99.477814" y1="98.147499" x2="99.477814" y2="118.733749" gradientTransform="matrix(0.174419,0,0,0.174419,0,0)">
<stop offset="0" style="stop-color:rgb(43.921569%,87.450981%,100%);stop-opacity:1;"/>
<stop offset="1" style="stop-color:rgb(43.921569%,68.627453%,100%);stop-opacity:1;"/>
</linearGradient>
<linearGradient id="linear4" gradientUnits="userSpaceOnUse" x1="76.405632" y1="55.30875" x2="76.405632" y2="59.34" gradientTransform="matrix(0.174419,0,0,0.174419,0,0)">
<stop offset="0" style="stop-color:rgb(43.921569%,87.450981%,100%);stop-opacity:1;"/>
<stop offset="1" style="stop-color:rgb(43.921569%,68.627453%,100%);stop-opacity:1;"/>
</linearGradient>
<linearGradient id="linear5" gradientUnits="userSpaceOnUse" x1="64.392502" y1="51.0625" x2="64.392502" y2="56.061249" gradientTransform="matrix(0.174419,0,0,0.174419,0,0)">
<stop offset="0" style="stop-color:rgb(43.921569%,87.450981%,100%);stop-opacity:1;"/>
<stop offset="1" style="stop-color:rgb(43.921569%,68.627453%,100%);stop-opacity:1;"/>
</linearGradient>
<linearGradient id="linear6" gradientUnits="userSpaceOnUse" x1="99.477814" y1="53.266251" x2="99.477814" y2="73.852501" gradientTransform="matrix(0.174419,0,0,0.174419,0,0)">
<stop offset="0" style="stop-color:rgb(43.921569%,87.450981%,100%);stop-opacity:1;"/>
<stop offset="1" style="stop-color:rgb(43.921569%,68.627453%,100%);stop-opacity:1;"/>
</linearGradient>
</defs>
<g id="surface33421563">
<path style=" stroke:none;fill-rule:nonzero;fill:url(#linear0);" d="M 24.835938 14.953125 L 24.835938 14.910156 C 24.828125 14.898438 24.824219 14.882812 24.820312 14.863281 C 24.816406 14.855469 24.816406 14.839844 24.8125 14.832031 C 24.8125 14.828125 24.804688 14.828125 24.804688 14.820312 C 24.800781 14.8125 24.796875 14.804688 24.792969 14.792969 C 24.792969 14.792969 24.792969 14.789062 24.792969 14.785156 L 19.167969 4.003906 C 19.148438 3.964844 19.125 3.933594 19.097656 3.90625 C 19.097656 3.90625 19.097656 3.898438 19.09375 3.898438 C 19.054688 3.859375 19.007812 3.828125 18.960938 3.800781 C 18.945312 3.796875 18.933594 3.792969 18.917969 3.789062 C 18.875 3.769531 18.835938 3.757812 18.789062 3.753906 C 18.777344 3.753906 18.769531 3.75 18.757812 3.75 C 18.753906 3.75 18.753906 3.75 18.75 3.75 L 8.90625 3.75 C 8.738281 3.75 8.578125 3.84375 8.5 3.988281 L 6.15625 8.207031 C 6.148438 8.21875 6.148438 8.226562 6.144531 8.230469 C 6.125 8.269531 6.121094 8.304688 6.113281 8.347656 C 6.109375 8.371094 6.097656 8.394531 6.097656 8.417969 C 6.097656 8.429688 6.09375 8.433594 6.09375 8.4375 C 6.09375 8.480469 6.109375 8.523438 6.117188 8.558594 C 6.121094 8.578125 6.121094 8.59375 6.125 8.605469 C 6.125 8.609375 6.125 8.609375 6.132812 8.609375 C 6.15625 8.671875 6.191406 8.726562 6.234375 8.769531 C 6.25 8.785156 6.261719 8.789062 6.273438 8.796875 C 6.308594 8.828125 6.351562 8.855469 6.398438 8.875 C 6.402344 8.875 6.40625 8.878906 6.414062 8.882812 L 11.277344 10.503906 L 6.71875 14.652344 C 6.617188 14.742188 6.5625 14.867188 6.5625 15 C 6.5625 15.132812 6.617188 15.257812 6.71875 15.347656 L 11.277344 19.496094 L 6.414062 21.117188 C 6.40625 21.121094 6.402344 21.125 6.398438 21.125 C 6.351562 21.144531 6.308594 21.171875 6.273438 21.203125 C 6.261719 21.210938 6.25 21.214844 6.234375 21.230469 C 6.191406 21.273438 6.15625 21.328125 6.132812 21.390625 C 6.125 21.390625 6.125 21.390625 6.125 21.394531 C 6.121094 21.40625 6.121094 21.421875 6.117188 21.441406 C 6.109375 21.476562 6.09375 21.519531 6.09375 21.5625 C 6.09375 21.566406 6.097656 21.570312 6.097656 21.582031 C 6.097656 21.605469 6.109375 21.628906 6.113281 21.652344 C 6.121094 21.695312 6.125 21.730469 6.144531 21.769531 C 6.148438 21.773438 6.148438 21.78125 6.15625 21.792969 L 8.5 26.011719 C 8.578125 26.15625 8.738281 26.25 8.90625 26.25 L 18.75 26.25 C 18.804688 26.25 18.863281 26.234375 18.914062 26.21875 C 18.929688 26.210938 18.9375 26.207031 18.953125 26.199219 C 19.003906 26.175781 19.054688 26.140625 19.09375 26.101562 C 19.097656 26.101562 19.097656 26.09375 19.097656 26.09375 C 19.125 26.066406 19.148438 26.035156 19.167969 25.996094 L 24.792969 15.214844 C 24.792969 15.210938 24.792969 15.207031 24.792969 15.207031 C 24.796875 15.195312 24.800781 15.1875 24.804688 15.179688 C 24.804688 15.179688 24.8125 15.171875 24.8125 15.167969 C 24.816406 15.160156 24.816406 15.144531 24.820312 15.136719 C 24.824219 15.117188 24.828125 15.101562 24.835938 15.089844 L 24.835938 15.046875 C 24.839844 15.03125 24.84375 15.019531 24.84375 15.003906 C 24.84375 15 24.84375 15 24.84375 14.996094 C 24.84375 14.980469 24.839844 14.96875 24.835938 14.953125 Z M 9.183594 4.6875 L 17.554688 4.6875 L 14.019531 7.96875 L 7.359375 7.96875 Z M 14.53125 18.285156 L 14.53125 11.714844 L 23.066406 15 Z M 20.171875 17.117188 L 14.53125 20.710938 L 14.53125 19.289062 Z M 14.53125 10.710938 L 14.53125 9.289062 L 20.171875 12.882812 Z M 13.59375 9.648438 L 13.59375 10.351562 L 13.058594 10.144531 Z M 9.449219 8.90625 L 13.011719 8.90625 L 12.070312 9.777344 Z M 7.730469 15 L 12.289062 10.851562 L 13.59375 11.359375 L 13.59375 18.640625 L 12.289062 19.148438 Z M 13.59375 19.648438 L 13.59375 20.351562 L 13.058594 19.855469 Z M 12.070312 20.222656 L 13.011719 21.09375 L 9.449219 21.09375 Z M 9.183594 25.3125 L 7.359375 22.03125 L 14.019531 22.03125 L 17.554688 25.3125 Z M 18.617188 25.015625 L 14.910156 21.578125 L 23.152344 16.335938 Z M 14.910156 8.421875 L 18.617188 4.984375 L 23.152344 13.664062 Z M 14.910156 8.421875 "/>
<path style=" stroke:none;fill-rule:nonzero;fill:url(#linear1);" d="M 13.011719 21.09375 L 9.449219 21.09375 L 12.070312 20.222656 Z M 13.011719 21.09375 "/>
<path style=" stroke:none;fill-rule:nonzero;fill:url(#linear2);" d="M 13.59375 19.648438 L 13.59375 20.351562 L 13.058594 19.855469 Z M 13.59375 19.648438 "/>
<path style=" stroke:none;fill-rule:nonzero;fill:url(#linear3);" d="M 20.171875 17.117188 L 14.53125 20.710938 L 14.53125 19.289062 Z M 20.171875 17.117188 "/>
<path style=" stroke:none;fill-rule:nonzero;fill:url(#linear4);" d="M 13.59375 9.648438 L 13.59375 10.351562 L 13.058594 10.144531 Z M 13.59375 9.648438 "/>
<path style=" stroke:none;fill-rule:nonzero;fill:url(#linear5);" d="M 13.011719 8.90625 L 12.070312 9.777344 L 9.449219 8.90625 Z M 13.011719 8.90625 "/>
<path style=" stroke:none;fill-rule:nonzero;fill:url(#linear6);" d="M 20.171875 12.882812 L 14.53125 10.710938 L 14.53125 9.289062 Z M 20.171875 12.882812 "/>
</g>
</svg>
