<?xml version="1.0" encoding="UTF-8"?>
<svg xmlns="http://www.w3.org/2000/svg" xmlns:xlink="http://www.w3.org/1999/xlink" viewBox="0 0 30 30" width="30px" height="30px">
<defs>
<linearGradient id="linear0" gradientUnits="userSpaceOnUse" x1="86" y1="21.54031" x2="86" y2="150.5" gradientTransform="matrix(0.174419,0,0,0.174419,0,0)">
<stop offset="0" style="stop-color:rgb(0%,77.64706%,100%);stop-opacity:1;"/>
<stop offset="1" style="stop-color:rgb(0%,44.705883%,100%);stop-opacity:1;"/>
</linearGradient>
<linearGradient id="linear1" gradientUnits="userSpaceOnUse" x1="119.324997" y1="83.796249" x2="119.324997" y2="123.625" gradientTransform="matrix(0.174419,0,0,0.174419,0,0)">
<stop offset="0" style="stop-color:rgb(43.921569%,87.450981%,100%);stop-opacity:1;"/>
<stop offset="1" style="stop-color:rgb(43.921569%,68.627453%,100%);stop-opacity:1;"/>
</linearGradient>
<linearGradient id="linear2" gradientUnits="userSpaceOnUse" x1="86" y1="92.396248" x2="86" y2="123.625" gradientTransform="matrix(0.174419,0,0,0.174419,0,0)">
<stop offset="0" style="stop-color:rgb(43.921569%,87.450981%,100%);stop-opacity:1;"/>
<stop offset="1" style="stop-color:rgb(43.921569%,68.627453%,100%);stop-opacity:1;"/>
</linearGradient>
<linearGradient id="linear3" gradientUnits="userSpaceOnUse" x1="56.276249" y1="103.925629" x2="56.276249" y2="123.625" gradientTransform="matrix(0.174419,0,0,0.174419,0,0)">
<stop offset="0" style="stop-color:rgb(43.921569%,87.450981%,100%);stop-opacity:1;"/>
<stop offset="1" style="stop-color:rgb(43.921569%,68.627453%,100%);stop-opacity:1;"/>
</linearGradient>
<linearGradient id="linear4" gradientUnits="userSpaceOnUse" x1="36.657501" y1="116.771881" x2="36.657501" y2="123.625" gradientTransform="matrix(0.174419,0,0,0.174419,0,0)">
<stop offset="0" style="stop-color:rgb(43.921569%,87.450981%,100%);stop-opacity:1;"/>
<stop offset="1" style="stop-color:rgb(43.921569%,68.627453%,100%);stop-opacity:1;"/>
</linearGradient>
</defs>
<g id="surface664033">
<path style=" stroke:none;fill-rule:nonzero;fill:url(#linear0);" d="M 25.304688 21.953125 C 25.292969 21.898438 25.28125 21.847656 25.257812 21.804688 L 15.414062 3.992188 C 15.40625 3.984375 15.402344 3.980469 15.398438 3.976562 C 15.394531 3.96875 15.394531 3.964844 15.390625 3.957031 L 15.304688 3.871094 C 15.289062 3.863281 15.28125 3.84375 15.261719 3.835938 C 15.234375 3.816406 15.203125 3.804688 15.167969 3.792969 C 15.144531 3.78125 15.121094 3.769531 15.09375 3.765625 C 15.089844 3.757812 15.089844 3.757812 15.085938 3.757812 C 15.054688 3.753906 15.027344 3.757812 15 3.757812 C 14.972656 3.757812 14.945312 3.753906 14.914062 3.757812 C 14.910156 3.757812 14.910156 3.757812 14.90625 3.757812 C 14.875 3.769531 14.84375 3.78125 14.816406 3.796875 C 14.789062 3.804688 14.761719 3.816406 14.738281 3.828125 C 14.71875 3.84375 14.710938 3.863281 14.695312 3.875 C 14.671875 3.890625 14.65625 3.910156 14.640625 3.929688 L 14.609375 3.957031 C 14.605469 3.964844 14.605469 3.96875 14.601562 3.976562 C 14.597656 3.980469 14.59375 3.984375 14.585938 3.992188 L 4.742188 21.804688 C 4.71875 21.847656 4.707031 21.898438 4.695312 21.953125 C 4.695312 21.960938 4.691406 21.976562 4.691406 21.988281 C 4.6875 22.035156 4.691406 22.082031 4.703125 22.128906 L 4.703125 22.148438 C 4.714844 22.191406 4.730469 22.234375 4.753906 22.269531 C 4.757812 22.28125 4.765625 22.289062 4.773438 22.296875 C 4.777344 22.304688 4.777344 22.308594 4.78125 22.3125 L 7.242188 25.574219 C 7.25 25.585938 7.265625 25.589844 7.273438 25.597656 C 7.292969 25.625 7.316406 25.644531 7.34375 25.664062 C 7.367188 25.683594 7.386719 25.695312 7.410156 25.707031 C 7.4375 25.71875 7.472656 25.730469 7.5 25.738281 C 7.519531 25.742188 7.53125 25.753906 7.550781 25.753906 L 10.996094 26.246094 C 11.019531 26.25 11.039062 26.25 11.0625 26.25 C 11.289062 26.25 11.484375 26.089844 11.523438 25.867188 L 12.140625 22.5 L 17.859375 22.5 L 18.476562 25.867188 C 18.515625 26.089844 18.710938 26.25 18.9375 26.25 C 18.960938 26.25 18.980469 26.25 19.003906 26.246094 L 22.449219 25.753906 L 22.453125 25.753906 C 22.453125 25.753906 22.457031 25.753906 22.460938 25.753906 C 22.484375 25.75 22.503906 25.734375 22.527344 25.726562 C 22.5625 25.714844 22.597656 25.707031 22.625 25.691406 C 22.65625 25.671875 22.679688 25.644531 22.703125 25.621094 C 22.71875 25.601562 22.742188 25.59375 22.757812 25.574219 L 25.21875 22.3125 C 25.222656 22.308594 25.222656 22.304688 25.226562 22.296875 C 25.234375 22.289062 25.242188 22.28125 25.246094 22.269531 C 25.269531 22.234375 25.285156 22.191406 25.296875 22.148438 L 25.296875 22.128906 C 25.308594 22.082031 25.3125 22.035156 25.308594 21.988281 C 25.308594 21.976562 25.304688 21.960938 25.304688 21.953125 Z M 6.582031 20.421875 C 6.59375 20.417969 6.609375 20.417969 6.628906 20.414062 L 6.734375 20.367188 L 6.835938 21.5625 L 5.953125 21.5625 Z M 6.097656 22.5 L 6.914062 22.5 L 7.015625 23.714844 Z M 19.753906 13.789062 L 17.410156 14.792969 L 15.976562 6.957031 Z M 15 6.828125 L 16.523438 15.167969 L 13.21875 16.578125 Z M 10.683594 25.25 L 8.054688 24.882812 L 7.855469 22.5 L 11.183594 22.5 Z M 11.359375 21.5625 L 7.777344 21.5625 L 7.644531 19.976562 L 11.984375 18.125 Z M 7.425781 19.050781 C 7.40625 19.035156 7.382812 19.027344 7.359375 19.011719 L 14.023438 6.957031 L 12.1875 17.019531 Z M 12.308594 21.5625 L 13.015625 17.6875 L 16.695312 16.117188 L 17.691406 21.5625 Z M 19.316406 25.25 L 18.816406 22.5 L 21.441406 22.5 L 21.839844 24.894531 Z M 22.664062 24.140625 L 22.390625 22.5 L 23.902344 22.5 Z M 18.640625 21.5625 L 17.578125 15.742188 L 20.210938 14.617188 L 24.046875 21.5625 Z M 18.640625 21.5625 "/>
<path style=" stroke:none;fill-rule:nonzero;fill:url(#linear1);" d="M 24.046875 21.5625 L 18.640625 21.5625 L 17.578125 15.742188 L 20.210938 14.617188 Z M 24.046875 21.5625 "/>
<path style=" stroke:none;fill-rule:nonzero;fill:url(#linear2);" d="M 17.691406 21.5625 L 12.308594 21.5625 L 13.015625 17.6875 L 16.695312 16.117188 Z M 17.691406 21.5625 "/>
<path style=" stroke:none;fill-rule:nonzero;fill:url(#linear3);" d="M 11.984375 18.125 L 11.359375 21.5625 L 7.777344 21.5625 L 7.644531 19.976562 Z M 11.984375 18.125 "/>
<path style=" stroke:none;fill-rule:nonzero;fill:url(#linear4);" d="M 6.835938 21.5625 L 5.953125 21.5625 L 6.582031 20.421875 C 6.59375 20.417969 6.609375 20.417969 6.628906 20.414062 L 6.734375 20.367188 Z M 6.835938 21.5625 "/>
</g>
</svg>
