<?xml version="1.0" encoding="UTF-8"?>
<svg xmlns="http://www.w3.org/2000/svg" xmlns:xlink="http://www.w3.org/1999/xlink" viewBox="0 0 30 30" width="30px" height="30px">
<defs>
<linearGradient id="linear0" gradientUnits="userSpaceOnUse" x1="104.8125" y1="72.5625" x2="104.8125" y2="107.5" gradientTransform="matrix(0.174419,0,0,0.174419,0,0)">
<stop offset="0" style="stop-color:rgb(43.921569%,87.450981%,100%);stop-opacity:1;"/>
<stop offset="1" style="stop-color:rgb(43.921569%,68.627453%,100%);stop-opacity:1;"/>
</linearGradient>
<linearGradient id="linear1" gradientUnits="userSpaceOnUse" x1="104.8125" y1="19.48975" x2="104.8125" y2="144.181686" gradientTransform="matrix(0.174419,0,0,0.174419,0,0)">
<stop offset="0" style="stop-color:rgb(0%,77.64706%,100%);stop-opacity:1;"/>
<stop offset="1" style="stop-color:rgb(0%,44.705883%,100%);stop-opacity:1;"/>
</linearGradient>
<linearGradient id="linear2" gradientUnits="userSpaceOnUse" x1="81.96875" y1="19.484381" x2="81.96875" y2="144.181686" gradientTransform="matrix(0.174419,0,0,0.174419,0,0)">
<stop offset="0" style="stop-color:rgb(0%,77.64706%,100%);stop-opacity:1;"/>
<stop offset="1" style="stop-color:rgb(0%,44.705883%,100%);stop-opacity:1;"/>
</linearGradient>
</defs>
<g id="surface32284065">
<path style=" stroke:none;fill-rule:nonzero;fill:url(#linear0);" d="M 20.839844 13.476562 C 20.167969 12.964844 19.265625 12.65625 18.28125 12.65625 C 17.296875 12.65625 16.394531 12.964844 15.722656 13.476562 C 15.039062 13.992188 14.589844 14.722656 14.535156 15.550781 C 14.484375 16.402344 14.863281 17.191406 15.535156 17.777344 C 16.21875 18.375 17.191406 18.75 18.28125 18.75 C 19.371094 18.75 20.34375 18.375 21.027344 17.777344 C 21.695312 17.191406 22.078125 16.402344 22.027344 15.550781 C 21.972656 14.722656 21.519531 13.992188 20.839844 13.476562 Z M 20.839844 13.476562 "/>
<path style=" stroke:none;fill-rule:nonzero;fill:url(#linear1);" d="M 18.269531 21.09375 C 16.527344 21.09375 14.921875 20.464844 13.757812 19.320312 C 13.1875 18.765625 12.765625 18.125 12.5 17.421875 C 12.238281 16.734375 12.140625 16.011719 12.207031 15.28125 C 12.269531 14.574219 12.484375 13.898438 12.84375 13.273438 C 13.1875 12.671875 13.65625 12.132812 14.234375 11.675781 C 15.351562 10.796875 16.789062 10.3125 18.28125 10.3125 C 18.285156 10.3125 18.285156 10.3125 18.289062 10.3125 C 19.777344 10.3125 21.210938 10.792969 22.328125 11.664062 C 22.90625 12.121094 23.375 12.65625 23.71875 13.257812 C 24.078125 13.882812 24.292969 14.558594 24.355469 15.265625 C 24.421875 15.996094 24.324219 16.71875 24.0625 17.40625 C 23.796875 18.109375 23.375 18.75 22.808594 19.304688 C 21.640625 20.457031 20.03125 21.089844 18.285156 21.09375 C 18.277344 21.09375 18.273438 21.09375 18.269531 21.09375 Z M 18.289062 11.25 C 18.285156 11.25 18.285156 11.25 18.28125 11.25 C 17 11.25 15.765625 11.664062 14.8125 12.414062 C 14.332031 12.796875 13.941406 13.242188 13.65625 13.738281 C 13.367188 14.246094 13.191406 14.792969 13.140625 15.367188 C 13.089844 15.957031 13.167969 16.535156 13.375 17.089844 C 13.59375 17.667969 13.941406 18.191406 14.414062 18.648438 C 15.402344 19.621094 16.773438 20.15625 18.269531 20.15625 C 18.273438 20.15625 18.277344 20.15625 18.28125 20.15625 C 19.785156 20.15625 21.15625 19.613281 22.152344 18.636719 C 22.621094 18.175781 22.96875 17.652344 23.1875 17.074219 C 23.394531 16.519531 23.472656 15.941406 23.421875 15.347656 C 23.371094 14.777344 23.195312 14.230469 22.90625 13.722656 C 22.621094 13.226562 22.230469 12.78125 21.75 12.402344 C 20.796875 11.660156 19.570312 11.25 18.289062 11.25 Z M 18.289062 11.25 "/>
<path style=" stroke:none;fill-rule:nonzero;fill:url(#linear2);" d="M 18.210938 25.3125 C 10.863281 25.3125 8.582031 19.59375 8.582031 17.511719 C 8.582031 17.5 8.582031 17.492188 8.582031 17.480469 L 4.121094 21.105469 C 3.777344 21.398438 3.332031 21.5625 2.871094 21.5625 C 2.304688 21.5625 1.769531 21.316406 1.402344 20.886719 C 1.066406 20.496094 0.902344 19.996094 0.941406 19.480469 C 0.984375 18.964844 1.21875 18.496094 1.613281 18.160156 L 9.367188 11.71875 L 6.09375 11.71875 C 5.058594 11.71875 4.21875 10.878906 4.21875 9.84375 C 4.21875 8.808594 5.058594 7.96875 6.09375 7.96875 L 16.046875 7.96875 L 13.78125 6.234375 C 13.769531 6.222656 13.753906 6.214844 13.742188 6.203125 C 13.398438 5.929688 13.183594 5.539062 13.136719 5.101562 C 13.085938 4.667969 13.210938 4.238281 13.484375 3.898438 C 13.757812 3.554688 14.148438 3.339844 14.585938 3.292969 C 15.019531 3.242188 15.449219 3.367188 15.789062 3.640625 L 24.242188 9.816406 C 24.257812 9.832031 24.292969 9.859375 24.316406 9.882812 L 24.320312 9.878906 C 25.164062 10.535156 25.871094 11.316406 26.417969 12.195312 C 27.027344 13.171875 27.417969 14.238281 27.574219 15.363281 C 27.65625 15.945312 27.675781 16.53125 27.632812 17.109375 C 27.632812 21.847656 23.671875 25.3125 18.210938 25.3125 Z M 9.070312 16.007812 C 9.140625 16.007812 9.210938 16.027344 9.277344 16.058594 C 9.441406 16.140625 9.542969 16.308594 9.539062 16.492188 C 9.527344 16.953125 9.515625 17.375 9.519531 17.5 C 9.519531 19.269531 11.660156 24.375 18.210938 24.375 C 23.207031 24.375 26.695312 21.371094 26.695312 17.074219 C 26.738281 16.527344 26.71875 16.007812 26.648438 15.496094 C 26.507812 14.5 26.160156 13.558594 25.625 12.691406 C 25.140625 11.917969 24.519531 11.226562 23.777344 10.644531 C 23.746094 10.628906 23.71875 10.609375 23.699219 10.59375 C 23.6875 10.578125 23.671875 10.566406 23.660156 10.554688 L 15.222656 4.386719 C 15.058594 4.253906 14.875 4.203125 14.6875 4.222656 C 14.5 4.242188 14.335938 4.335938 14.21875 4.484375 C 14.097656 4.628906 14.046875 4.8125 14.066406 5 C 14.085938 5.179688 14.171875 5.339844 14.308594 5.457031 L 17.910156 8.042969 C 18.085938 8.152344 18.167969 8.367188 18.109375 8.570312 C 18.050781 8.769531 17.855469 8.882812 17.648438 8.882812 L 6.09375 8.90625 C 5.578125 8.90625 5.15625 9.328125 5.15625 9.84375 C 5.15625 10.359375 5.578125 10.78125 6.09375 10.78125 L 10.664062 10.78125 C 10.863281 10.78125 11.039062 10.90625 11.105469 11.089844 C 11.171875 11.277344 11.113281 11.484375 10.964844 11.609375 L 2.21875 18.878906 C 2.019531 19.046875 1.898438 19.289062 1.878906 19.550781 C 1.859375 19.816406 1.941406 20.074219 2.113281 20.277344 C 2.457031 20.679688 3.117188 20.730469 3.519531 20.382812 L 8.777344 16.113281 C 8.859375 16.046875 8.964844 16.007812 9.070312 16.007812 Z M 9.070312 16.007812 "/>
</g>
</svg>
