<?xml version="1.0" encoding="UTF-8"?>
<svg xmlns="http://www.w3.org/2000/svg" xmlns:xlink="http://www.w3.org/1999/xlink" viewBox="0 0 30 30" width="30px" height="30px">
<defs>
<linearGradient id="linear0" gradientUnits="userSpaceOnUse" x1="86" y1="15.23275" x2="86" y2="157.764313" gradientTransform="matrix(0.174419,0,0,0.174419,0,0)">
<stop offset="0" style="stop-color:rgb(0%,77.64706%,100%);stop-opacity:1;"/>
<stop offset="1" style="stop-color:rgb(0%,44.705883%,100%);stop-opacity:1;"/>
</linearGradient>
<linearGradient id="linear1" gradientUnits="userSpaceOnUse" x1="123.625" y1="15.23006" x2="123.625" y2="157.766998" gradientTransform="matrix(0.174419,0,0,0.174419,0,0)">
<stop offset="0" style="stop-color:rgb(0%,77.64706%,100%);stop-opacity:1;"/>
<stop offset="1" style="stop-color:rgb(0%,44.705883%,100%);stop-opacity:1;"/>
</linearGradient>
<linearGradient id="linear2" gradientUnits="userSpaceOnUse" x1="123.625" y1="15.23006" x2="123.625" y2="157.766998" gradientTransform="matrix(0.174419,0,0,0.174419,0,0)">
<stop offset="0" style="stop-color:rgb(0%,77.64706%,100%);stop-opacity:1;"/>
<stop offset="1" style="stop-color:rgb(0%,44.705883%,100%);stop-opacity:1;"/>
</linearGradient>
<linearGradient id="linear3" gradientUnits="userSpaceOnUse" x1="123.625" y1="15.23006" x2="123.625" y2="157.766998" gradientTransform="matrix(0.174419,0,0,0.174419,0,0)">
<stop offset="0" style="stop-color:rgb(0%,77.64706%,100%);stop-opacity:1;"/>
<stop offset="1" style="stop-color:rgb(0%,44.705883%,100%);stop-opacity:1;"/>
</linearGradient>
<linearGradient id="linear4" gradientUnits="userSpaceOnUse" x1="123.625" y1="15.23006" x2="123.625" y2="157.766998" gradientTransform="matrix(0.174419,0,0,0.174419,0,0)">
<stop offset="0" style="stop-color:rgb(0%,77.64706%,100%);stop-opacity:1;"/>
<stop offset="1" style="stop-color:rgb(0%,44.705883%,100%);stop-opacity:1;"/>
</linearGradient>
<linearGradient id="linear5" gradientUnits="userSpaceOnUse" x1="123.625" y1="15.23006" x2="123.625" y2="157.766998" gradientTransform="matrix(0.174419,0,0,0.174419,0,0)">
<stop offset="0" style="stop-color:rgb(0%,77.64706%,100%);stop-opacity:1;"/>
<stop offset="1" style="stop-color:rgb(0%,44.705883%,100%);stop-opacity:1;"/>
</linearGradient>
<linearGradient id="linear6" gradientUnits="userSpaceOnUse" x1="59.125" y1="59.125" x2="59.125" y2="111.114693" gradientTransform="matrix(0.174419,0,0,0.174419,0,0)">
<stop offset="0" style="stop-color:rgb(43.921569%,87.450981%,100%);stop-opacity:1;"/>
<stop offset="1" style="stop-color:rgb(43.921569%,68.627453%,100%);stop-opacity:1;"/>
</linearGradient>
</defs>
<g id="surface1854933">
<path style=" stroke:none;fill-rule:nonzero;fill:url(#linear0);" d="M 23.4375 5.15625 L 16.40625 5.15625 L 16.40625 4.207031 C 16.40625 3.769531 16.203125 3.363281 15.851562 3.097656 C 15.492188 2.828125 15.039062 2.742188 14.609375 2.871094 L 5.90625 5.375 C 4.914062 5.660156 4.21875 6.574219 4.21875 7.597656 L 4.21875 22.402344 C 4.21875 23.425781 4.914062 24.339844 5.90625 24.628906 L 14.609375 27.132812 C 14.738281 27.167969 14.871094 27.1875 15.003906 27.1875 C 15.304688 27.1875 15.601562 27.089844 15.851562 26.902344 C 16.203125 26.636719 16.40625 26.230469 16.40625 25.792969 L 16.40625 24.84375 L 23.4375 24.84375 C 24.730469 24.84375 25.78125 23.792969 25.78125 22.5 L 25.78125 7.5 C 25.78125 6.207031 24.730469 5.15625 23.4375 5.15625 Z M 15.46875 25.792969 C 15.46875 25.933594 15.402344 26.066406 15.285156 26.152344 C 15.164062 26.242188 15.011719 26.273438 14.867188 26.230469 L 6.167969 23.726562 C 5.570312 23.554688 5.15625 23.011719 5.15625 22.402344 L 5.15625 7.597656 C 5.15625 6.988281 5.570312 6.445312 6.167969 6.273438 L 14.867188 3.769531 C 14.910156 3.757812 14.957031 3.75 15 3.75 C 15.105469 3.75 15.203125 3.785156 15.285156 3.847656 C 15.402344 3.933594 15.46875 4.066406 15.46875 4.207031 Z M 24.84375 22.5 C 24.84375 23.273438 24.210938 23.90625 23.4375 23.90625 L 16.40625 23.90625 L 16.40625 21.09375 L 18.28125 21.09375 L 18.28125 20.15625 L 16.40625 20.15625 L 16.40625 18.28125 L 18.28125 18.28125 L 18.28125 17.34375 L 16.40625 17.34375 L 16.40625 15.46875 L 18.28125 15.46875 L 18.28125 14.53125 L 16.40625 14.53125 L 16.40625 12.65625 L 18.28125 12.65625 L 18.28125 11.71875 L 16.40625 11.71875 L 16.40625 9.84375 L 18.28125 9.84375 L 18.28125 8.90625 L 16.40625 8.90625 L 16.40625 6.09375 L 23.4375 6.09375 C 24.210938 6.09375 24.84375 6.726562 24.84375 7.5 Z M 24.84375 22.5 "/>
<path style=" stroke:none;fill-rule:nonzero;fill:url(#linear1);" d="M 20.15625 8.90625 L 22.96875 8.90625 L 22.96875 9.84375 L 20.15625 9.84375 Z M 20.15625 8.90625 "/>
<path style=" stroke:none;fill-rule:nonzero;fill:url(#linear2);" d="M 20.15625 11.71875 L 22.96875 11.71875 L 22.96875 12.65625 L 20.15625 12.65625 Z M 20.15625 11.71875 "/>
<path style=" stroke:none;fill-rule:nonzero;fill:url(#linear3);" d="M 20.15625 14.53125 L 22.96875 14.53125 L 22.96875 15.46875 L 20.15625 15.46875 Z M 20.15625 14.53125 "/>
<path style=" stroke:none;fill-rule:nonzero;fill:url(#linear4);" d="M 20.15625 17.34375 L 22.96875 17.34375 L 22.96875 18.28125 L 20.15625 18.28125 Z M 20.15625 17.34375 "/>
<path style=" stroke:none;fill-rule:nonzero;fill:url(#linear5);" d="M 20.15625 20.15625 L 22.96875 20.15625 L 22.96875 21.09375 L 20.15625 21.09375 Z M 20.15625 20.15625 "/>
<path style=" stroke:none;fill-rule:nonzero;fill:url(#linear6);" d="M 11.226562 15 L 13.660156 19.21875 L 11.832031 19.21875 L 10.3125 16.582031 L 8.792969 19.21875 L 6.964844 19.21875 L 9.398438 15 L 6.964844 10.78125 L 8.792969 10.78125 L 10.3125 13.417969 L 11.832031 10.78125 L 13.660156 10.78125 Z M 11.226562 15 "/>
</g>
</svg>
