<?xml version="1.0" encoding="UTF-8"?>
<svg xmlns="http://www.w3.org/2000/svg" xmlns:xlink="http://www.w3.org/1999/xlink" viewBox="0 0 30 30" width="30px" height="30px">
<defs>
<linearGradient id="linear0" gradientUnits="userSpaceOnUse" x1="86.247253" y1="20.87113" x2="86.247253" y2="153.364883" gradientTransform="matrix(0.174419,0,0,0.174419,0,0)">
<stop offset="0" style="stop-color:rgb(0%,77.64706%,100%);stop-opacity:1;"/>
<stop offset="1" style="stop-color:rgb(0%,44.705883%,100%);stop-opacity:1;"/>
</linearGradient>
<linearGradient id="linear1" gradientUnits="userSpaceOnUse" x1="86.002693" y1="20.87113" x2="86.002693" y2="153.364883" gradientTransform="matrix(0.174419,0,0,0.174419,0,0)">
<stop offset="0" style="stop-color:rgb(0%,77.64706%,100%);stop-opacity:1;"/>
<stop offset="1" style="stop-color:rgb(0%,44.705883%,100%);stop-opacity:1;"/>
</linearGradient>
<linearGradient id="linear2" gradientUnits="userSpaceOnUse" x1="85.986557" y1="52.607811" x2="85.986557" y2="109.182381" gradientTransform="matrix(0.174419,0,0,0.174419,0,0)">
<stop offset="0" style="stop-color:rgb(43.921569%,87.450981%,100%);stop-opacity:1;"/>
<stop offset="1" style="stop-color:rgb(43.921569%,68.627453%,100%);stop-opacity:1;"/>
</linearGradient>
</defs>
<g id="surface665074">
<path style=" stroke:none;fill-rule:nonzero;fill:url(#linear0);" d="M 24.992188 3.902344 C 24.902344 3.804688 24.777344 3.75 24.644531 3.75 L 6.378906 3.75 C 5.984375 3.75 5.605469 3.917969 5.339844 4.207031 C 5.074219 4.496094 4.941406 4.886719 4.976562 5.28125 L 6.53125 22.910156 C 6.582031 23.488281 6.992188 23.980469 7.546875 24.140625 L 14.613281 26.160156 C 14.738281 26.195312 14.871094 26.210938 15 26.210938 C 15.128906 26.210938 15.257812 26.195312 15.386719 26.160156 L 22.453125 24.140625 C 23.007812 23.980469 23.414062 23.488281 23.46875 22.910156 L 25.113281 4.261719 C 25.125 4.128906 25.082031 4 24.992188 3.902344 Z M 22.535156 22.828125 C 22.515625 23.023438 22.382812 23.183594 22.195312 23.238281 L 15.128906 25.257812 C 15.042969 25.28125 14.953125 25.28125 14.871094 25.257812 L 7.804688 23.238281 C 7.617188 23.183594 7.484375 23.023438 7.464844 22.828125 L 5.910156 5.199219 C 5.898438 5.066406 5.941406 4.9375 6.03125 4.839844 C 6.121094 4.742188 6.246094 4.6875 6.378906 4.6875 L 24.132812 4.6875 Z M 22.535156 22.828125 "/>
<path style=" stroke:none;fill-rule:nonzero;fill:url(#linear1);" d="M 8.683594 22.511719 L 14.871094 24.28125 C 14.914062 24.292969 14.957031 24.300781 15 24.300781 C 15.042969 24.300781 15.085938 24.292969 15.128906 24.28125 L 21.316406 22.511719 C 21.503906 22.460938 21.640625 22.296875 21.65625 22.101562 L 23.066406 6.136719 C 23.078125 6.003906 23.035156 5.875 22.945312 5.777344 C 22.855469 5.679688 22.730469 5.625 22.597656 5.625 L 7.402344 5.625 C 7.269531 5.625 7.144531 5.679688 7.054688 5.777344 C 6.96875 5.875 6.921875 6.003906 6.933594 6.136719 L 8.34375 22.101562 C 8.359375 22.296875 8.496094 22.460938 8.683594 22.511719 Z M 22.085938 6.5625 L 20.75 21.699219 L 15 23.34375 L 9.25 21.699219 L 7.914062 6.5625 Z M 22.085938 6.5625 "/>
<path style=" stroke:none;fill-rule:nonzero;fill:url(#linear2);" d="M 19.527344 11.035156 L 19.644531 9.628906 C 19.65625 9.492188 19.546875 9.375 19.410156 9.375 L 10.585938 9.375 C 10.449219 9.375 10.34375 9.488281 10.351562 9.625 L 10.679688 14.78125 C 10.6875 14.902344 10.789062 15 10.914062 15 L 16.96875 15 C 17.101562 15 17.210938 15.113281 17.203125 15.25 L 17.074219 17.152344 C 17.070312 17.246094 17.007812 17.328125 16.917969 17.359375 L 15.050781 17.996094 C 15 18.015625 14.949219 18.015625 14.898438 17.996094 L 13.03125 17.359375 C 12.941406 17.328125 12.878906 17.25 12.875 17.15625 L 12.796875 16.15625 C 12.789062 16.03125 12.6875 15.9375 12.566406 15.9375 L 10.996094 15.9375 C 10.859375 15.9375 10.75 16.054688 10.761719 16.1875 L 10.9375 18.679688 C 10.941406 18.777344 11.007812 18.859375 11.097656 18.886719 L 14.902344 20.140625 C 14.949219 20.15625 15 20.15625 15.046875 20.140625 L 18.851562 18.886719 C 18.941406 18.859375 19.003906 18.777344 19.011719 18.679688 L 19.34375 13.375 C 19.351562 13.238281 19.242188 13.125 19.109375 13.125 L 12.84375 13.125 C 12.722656 13.125 12.621094 13.03125 12.613281 12.910156 L 12.496094 11.503906 C 12.488281 11.367188 12.59375 11.25 12.730469 11.25 L 19.296875 11.25 C 19.417969 11.25 19.519531 11.15625 19.527344 11.035156 Z M 19.527344 11.035156 "/>
</g>
</svg>
