<?xml version="1.0" encoding="UTF-8"?>
<svg xmlns="http://www.w3.org/2000/svg" xmlns:xlink="http://www.w3.org/1999/xlink" viewBox="0 0 30 30" width="30px" height="30px">
<defs>
<linearGradient id="linear0" gradientUnits="userSpaceOnUse" x1="86" y1="24.410561" x2="86" y2="146.941757" gradientTransform="matrix(0.174419,0,0,0.174419,0,0)">
<stop offset="0" style="stop-color:rgb(0%,77.64706%,100%);stop-opacity:1;"/>
<stop offset="1" style="stop-color:rgb(0%,44.705883%,100%);stop-opacity:1;"/>
</linearGradient>
<linearGradient id="linear1" gradientUnits="userSpaceOnUse" x1="107.5" y1="86" x2="107.5" y2="118.25" gradientTransform="matrix(0.174419,0,0,0.174419,0,0)">
<stop offset="0" style="stop-color:rgb(43.921569%,87.450981%,100%);stop-opacity:1;"/>
<stop offset="1" style="stop-color:rgb(43.921569%,68.627453%,100%);stop-opacity:1;"/>
</linearGradient>
<linearGradient id="linear2" gradientUnits="userSpaceOnUse" x1="107.5" y1="69.875" x2="107.5" y2="80.625" gradientTransform="matrix(0.174419,0,0,0.174419,0,0)">
<stop offset="0" style="stop-color:rgb(43.921569%,87.450981%,100%);stop-opacity:1;"/>
<stop offset="1" style="stop-color:rgb(43.921569%,68.627453%,100%);stop-opacity:1;"/>
</linearGradient>
<linearGradient id="linear3" gradientUnits="userSpaceOnUse" x1="73.90625" y1="56.4375" x2="73.90625" y2="118.25" gradientTransform="matrix(0.174419,0,0,0.174419,0,0)">
<stop offset="0" style="stop-color:rgb(43.921569%,87.450981%,100%);stop-opacity:1;"/>
<stop offset="1" style="stop-color:rgb(43.921569%,68.627453%,100%);stop-opacity:1;"/>
</linearGradient>
</defs>
<g id="surface1852677">
<path style=" stroke:none;fill-rule:nonzero;fill:url(#linear0);" d="M 23.4375 25.78125 L 6.5625 25.78125 C 5.269531 25.78125 4.21875 24.730469 4.21875 23.4375 L 4.21875 6.5625 C 4.21875 5.269531 5.269531 4.21875 6.5625 4.21875 L 23.4375 4.21875 C 24.730469 4.21875 25.78125 5.269531 25.78125 6.5625 L 25.78125 23.4375 C 25.78125 24.730469 24.730469 25.78125 23.4375 25.78125 Z M 6.5625 5.15625 C 5.789062 5.15625 5.15625 5.789062 5.15625 6.5625 L 5.15625 23.4375 C 5.15625 24.210938 5.789062 24.84375 6.5625 24.84375 L 23.4375 24.84375 C 24.210938 24.84375 24.84375 24.210938 24.84375 23.4375 L 24.84375 6.5625 C 24.84375 5.789062 24.210938 5.15625 23.4375 5.15625 Z M 6.5625 5.15625 "/>
<path style=" stroke:none;fill-rule:nonzero;fill:url(#linear1);" d="M 17.8125 20.15625 L 17.8125 15.46875 C 17.8125 15.210938 18.023438 15 18.28125 15 L 19.21875 15 C 19.476562 15 19.6875 15.210938 19.6875 15.46875 L 19.6875 20.15625 C 19.6875 20.414062 19.476562 20.625 19.21875 20.625 L 18.28125 20.625 C 18.023438 20.625 17.8125 20.414062 17.8125 20.15625 Z M 17.8125 20.15625 "/>
<path style=" stroke:none;fill-rule:nonzero;fill:url(#linear2);" d="M 17.8125 13.59375 L 17.8125 12.65625 C 17.8125 12.398438 18.023438 12.1875 18.28125 12.1875 L 19.21875 12.1875 C 19.476562 12.1875 19.6875 12.398438 19.6875 12.65625 L 19.6875 13.59375 C 19.6875 13.851562 19.476562 14.0625 19.21875 14.0625 L 18.28125 14.0625 C 18.023438 14.0625 17.8125 13.851562 17.8125 13.59375 Z M 17.8125 13.59375 "/>
<path style=" stroke:none;fill-rule:nonzero;fill:url(#linear3);" d="M 14.0625 9.84375 L 11.71875 9.84375 C 10.683594 9.84375 9.84375 10.683594 9.84375 11.71875 L 9.84375 20.15625 C 9.84375 20.414062 10.054688 20.625 10.3125 20.625 L 11.25 20.625 C 11.507812 20.625 11.71875 20.414062 11.71875 20.15625 L 11.71875 16.875 L 14.0625 16.875 L 14.0625 20.15625 C 14.0625 20.414062 14.273438 20.625 14.53125 20.625 L 15.46875 20.625 C 15.726562 20.625 15.9375 20.414062 15.9375 20.15625 L 15.9375 11.71875 C 15.9375 10.683594 15.097656 9.84375 14.0625 9.84375 Z M 13.59375 15 L 12.1875 15 C 11.929688 15 11.71875 14.789062 11.71875 14.53125 L 11.71875 12.1875 C 11.71875 11.929688 11.929688 11.71875 12.1875 11.71875 L 13.59375 11.71875 C 13.851562 11.71875 14.0625 11.929688 14.0625 12.1875 L 14.0625 14.53125 C 14.0625 14.789062 13.851562 15 13.59375 15 Z M 13.59375 15 "/>
</g>
</svg>
