<?xml version="1.0" encoding="UTF-8"?>
<svg xmlns="http://www.w3.org/2000/svg" xmlns:xlink="http://www.w3.org/1999/xlink" viewBox="0 0 30 30" width="30px" height="30px">
<defs>
<linearGradient id="linear0" gradientUnits="userSpaceOnUse" x1="86" y1="24.303061" x2="86" y2="147.842056" gradientTransform="matrix(0.174419,0,0,0.174419,0,0)">
<stop offset="0" style="stop-color:rgb(0%,77.64706%,100%);stop-opacity:1;"/>
<stop offset="1" style="stop-color:rgb(0%,44.705883%,100%);stop-opacity:1;"/>
</linearGradient>
<linearGradient id="linear1" gradientUnits="userSpaceOnUse" x1="122.490883" y1="95.892693" x2="122.490883" y2="134.888306" gradientTransform="matrix(0.174419,0,0,0.174419,0,0)">
<stop offset="0" style="stop-color:rgb(43.921569%,87.450981%,100%);stop-opacity:1;"/>
<stop offset="1" style="stop-color:rgb(43.921569%,68.627453%,100%);stop-opacity:1;"/>
</linearGradient>
<linearGradient id="linear2" gradientUnits="userSpaceOnUse" x1="91.59269" y1="95.892693" x2="91.59269" y2="134.888306" gradientTransform="matrix(0.174419,0,0,0.174419,0,0)">
<stop offset="0" style="stop-color:rgb(43.921569%,87.450981%,100%);stop-opacity:1;"/>
<stop offset="1" style="stop-color:rgb(43.921569%,68.627453%,100%);stop-opacity:1;"/>
</linearGradient>
</defs>
<g id="surface689893">
<path style=" stroke:none;fill-rule:nonzero;fill:url(#linear0);" d="M 23.90625 3.75 L 6.09375 3.75 C 4.78125 3.75 3.75 4.78125 3.75 6.09375 L 3.75 23.90625 C 3.75 25.21875 4.78125 26.25 6.09375 26.25 L 23.90625 26.25 C 25.21875 26.25 26.25 25.21875 26.25 23.90625 L 26.25 6.09375 C 26.25 4.78125 25.21875 3.75 23.90625 3.75 Z M 25.3125 23.90625 C 25.3125 24.703125 24.703125 25.3125 23.90625 25.3125 L 6.09375 25.3125 C 5.296875 25.3125 4.6875 24.703125 4.6875 23.90625 L 4.6875 6.09375 C 4.6875 5.296875 5.296875 4.6875 6.09375 4.6875 L 23.90625 4.6875 C 24.703125 4.6875 25.3125 5.296875 25.3125 6.09375 Z M 25.3125 23.90625 "/>
<path style=" stroke:none;fill-rule:nonzero;fill:url(#linear1);" d="M 21.890625 19.453125 L 21.515625 19.3125 C 20.859375 19.03125 20.578125 18.84375 20.578125 18.375 C 20.578125 18 20.859375 17.71875 21.28125 17.71875 C 21.65625 17.71875 21.890625 17.859375 22.125 18.1875 C 22.171875 18.28125 22.3125 18.328125 22.453125 18.234375 L 23.25 17.71875 C 23.34375 17.671875 23.390625 17.484375 23.34375 17.390625 C 22.875 16.6875 22.21875 16.40625 21.328125 16.40625 C 19.96875 16.40625 19.125 17.25 19.125 18.375 C 19.125 19.59375 19.828125 20.203125 20.953125 20.625 L 21.328125 20.765625 C 22.03125 21.046875 22.359375 21.234375 22.359375 21.75 C 22.359375 22.171875 22.03125 22.5 21.421875 22.5 C 20.765625 22.5 20.4375 22.125 20.109375 21.65625 C 20.015625 21.5625 19.875 21.515625 19.78125 21.609375 L 18.984375 22.125 C 18.890625 22.171875 18.84375 22.3125 18.890625 22.453125 C 19.359375 23.25 20.109375 23.859375 21.421875 23.859375 C 22.875 23.859375 23.90625 23.109375 23.90625 21.75 C 23.90625 20.53125 23.203125 19.96875 21.890625 19.453125 Z M 21.890625 19.453125 "/>
<path style=" stroke:none;fill-rule:nonzero;fill:url(#linear2);" d="M 18.046875 16.40625 L 16.96875 16.40625 C 16.828125 16.40625 16.734375 16.5 16.734375 16.640625 L 16.734375 21.375 C 16.734375 22.125 16.453125 22.3125 15.9375 22.3125 C 15.515625 22.3125 15.1875 22.078125 14.953125 21.75 C 14.90625 21.65625 14.765625 21.609375 14.625 21.703125 L 13.78125 22.21875 C 13.6875 22.265625 13.640625 22.453125 13.6875 22.546875 C 14.109375 23.25 14.90625 23.90625 16.03125 23.90625 C 17.390625 23.90625 18.28125 23.203125 18.28125 21.609375 L 18.28125 16.640625 C 18.28125 16.5 18.1875 16.40625 18.046875 16.40625 Z M 18.046875 16.40625 "/>
</g>
</svg>
