<?xml version="1.0" encoding="UTF-8"?>
<svg xmlns="http://www.w3.org/2000/svg" xmlns:xlink="http://www.w3.org/1999/xlink" viewBox="0 0 30 30" width="30px" height="30px">
<defs>
<linearGradient id="linear0" gradientUnits="userSpaceOnUse" x1="110.206306" y1="136.769562" x2="110.206306" y2="156.229752" gradientTransform="matrix(0.174419,0,0,0.174419,0,0)">
<stop offset="0" style="stop-color:rgb(0%,77.64706%,100%);stop-opacity:1;"/>
<stop offset="1" style="stop-color:rgb(0%,44.705883%,100%);stop-opacity:1;"/>
</linearGradient>
<linearGradient id="linear1" gradientUnits="userSpaceOnUse" x1="131.093567" y1="137.0625" x2="131.093567" y2="155.8535" gradientTransform="matrix(0.174419,0,0,0.174419,0,0)">
<stop offset="0" style="stop-color:rgb(0%,77.64706%,100%);stop-opacity:1;"/>
<stop offset="1" style="stop-color:rgb(0%,44.705883%,100%);stop-opacity:1;"/>
</linearGradient>
<linearGradient id="linear2" gradientUnits="userSpaceOnUse" x1="38.90694" y1="137.0625" x2="38.90694" y2="155.8535" gradientTransform="matrix(0.174419,0,0,0.174419,0,0)">
<stop offset="0" style="stop-color:rgb(0%,77.64706%,100%);stop-opacity:1;"/>
<stop offset="1" style="stop-color:rgb(0%,44.705883%,100%);stop-opacity:1;"/>
</linearGradient>
<linearGradient id="linear3" gradientUnits="userSpaceOnUse" x1="55.56675" y1="137.0625" x2="55.56675" y2="155.866943" gradientTransform="matrix(0.174419,0,0,0.174419,0,0)">
<stop offset="0" style="stop-color:rgb(0%,77.64706%,100%);stop-opacity:1;"/>
<stop offset="1" style="stop-color:rgb(0%,44.705883%,100%);stop-opacity:1;"/>
</linearGradient>
<linearGradient id="linear4" gradientUnits="userSpaceOnUse" x1="78.722252" y1="137.0625" x2="78.722252" y2="155.8535" gradientTransform="matrix(0.174419,0,0,0.174419,0,0)">
<stop offset="0" style="stop-color:rgb(0%,77.64706%,100%);stop-opacity:1;"/>
<stop offset="1" style="stop-color:rgb(0%,44.705883%,100%);stop-opacity:1;"/>
</linearGradient>
<linearGradient id="linear5" gradientUnits="userSpaceOnUse" x1="95.715309" y1="137.0625" x2="95.715309" y2="155.8535" gradientTransform="matrix(0.174419,0,0,0.174419,0,0)">
<stop offset="0" style="stop-color:rgb(0%,77.64706%,100%);stop-opacity:1;"/>
<stop offset="1" style="stop-color:rgb(0%,44.705883%,100%);stop-opacity:1;"/>
</linearGradient>
<linearGradient id="linear6" gradientUnits="userSpaceOnUse" x1="86" y1="16.125" x2="86" y2="131.6875" gradientTransform="matrix(0.174419,0,0,0.174419,0,0)">
<stop offset="0" style="stop-color:rgb(43.921569%,87.450981%,100%);stop-opacity:1;"/>
<stop offset="1" style="stop-color:rgb(43.921569%,68.627453%,100%);stop-opacity:1;"/>
</linearGradient>
</defs>
<g id="surface1854804">
<path style=" stroke:none;fill-rule:nonzero;fill:url(#linear0);" d="M 17.546875 25.519531 C 17.546875 24.957031 17.683594 24.539062 17.960938 24.269531 C 18.234375 23.992188 18.65625 23.855469 19.222656 23.855469 C 19.792969 23.855469 20.214844 23.992188 20.488281 24.269531 C 20.761719 24.550781 20.898438 24.976562 20.898438 25.550781 C 20.898438 26.128906 20.761719 26.554688 20.488281 26.832031 C 20.214844 27.113281 19.792969 27.25 19.222656 27.25 C 18.644531 27.25 18.226562 27.109375 17.953125 26.828125 C 17.679688 26.554688 17.546875 26.113281 17.546875 25.519531 Z M 19.222656 24.414062 C 18.921875 24.414062 18.695312 24.507812 18.542969 24.691406 C 18.394531 24.875 18.320312 25.152344 18.320312 25.523438 C 18.320312 25.921875 18.390625 26.21875 18.539062 26.40625 C 18.683594 26.59375 18.910156 26.6875 19.222656 26.6875 C 19.53125 26.6875 19.761719 26.597656 19.90625 26.410156 C 20.054688 26.222656 20.128906 25.9375 20.128906 25.554688 C 20.128906 25.167969 20.054688 24.878906 19.90625 24.695312 C 19.761719 24.507812 19.53125 24.414062 19.222656 24.414062 Z M 19.222656 24.414062 "/>
<path style=" stroke:none;fill-rule:nonzero;fill:url(#linear1);" d="M 21.386719 23.90625 L 22.277344 23.90625 L 23.65625 26.261719 L 23.621094 23.90625 L 24.34375 23.90625 L 24.34375 27.183594 L 23.523438 27.183594 L 22.078125 24.707031 L 22.113281 27.183594 L 21.386719 27.183594 Z M 21.386719 23.90625 "/>
<path style=" stroke:none;fill-rule:nonzero;fill:url(#linear2);" d="M 7.050781 27.183594 C 6.734375 27.183594 6.5 27.160156 6.347656 27.105469 C 6.195312 27.054688 6.058594 26.964844 5.9375 26.839844 C 5.824219 26.726562 5.75 26.601562 5.703125 26.457031 C 5.65625 26.316406 5.632812 26.117188 5.632812 25.855469 L 5.632812 23.90625 L 6.339844 23.90625 L 6.339844 25.832031 C 6.339844 26.023438 6.347656 26.15625 6.367188 26.234375 C 6.386719 26.3125 6.414062 26.378906 6.457031 26.421875 C 6.523438 26.5 6.605469 26.554688 6.703125 26.589844 C 6.800781 26.621094 6.9375 26.640625 7.109375 26.640625 L 7.9375 26.640625 L 7.9375 27.183594 Z M 7.050781 27.183594 "/>
<path style=" stroke:none;fill-rule:nonzero;fill:url(#linear3);" d="M 8.929688 23.90625 L 8.929688 25.847656 C 8.929688 26.152344 8.988281 26.363281 9.101562 26.480469 C 9.214844 26.601562 9.410156 26.660156 9.691406 26.660156 C 9.964844 26.660156 10.160156 26.601562 10.273438 26.480469 C 10.386719 26.363281 10.445312 26.152344 10.445312 25.847656 L 10.445312 23.90625 L 11.152344 23.90625 L 11.152344 25.863281 C 11.152344 26.097656 11.140625 26.277344 11.105469 26.414062 C 11.074219 26.550781 11.027344 26.660156 10.957031 26.742188 C 10.824219 26.894531 10.65625 27.007812 10.449219 27.078125 C 10.246094 27.152344 9.992188 27.1875 9.691406 27.1875 C 9.386719 27.1875 9.132812 27.152344 8.929688 27.078125 C 8.726562 27.003906 8.554688 26.890625 8.421875 26.742188 C 8.355469 26.664062 8.304688 26.558594 8.277344 26.425781 C 8.246094 26.292969 8.230469 26.105469 8.230469 25.867188 L 8.230469 23.910156 L 8.929688 23.910156 Z M 8.929688 23.90625 "/>
<path style=" stroke:none;fill-rule:nonzero;fill:url(#linear4);" d="M 11.835938 23.90625 L 12.875 23.90625 L 13.734375 26.421875 L 14.589844 23.90625 L 15.625 23.90625 L 15.625 27.183594 L 14.929688 27.183594 L 14.988281 24.632812 L 14.128906 27.183594 L 13.375 27.183594 L 12.488281 24.601562 L 12.558594 27.183594 L 11.839844 27.183594 L 11.839844 23.90625 Z M 11.835938 23.90625 "/>
<path style=" stroke:none;fill-rule:nonzero;fill:url(#linear5);" d="M 17.0625 27.183594 L 16.324219 27.183594 L 16.324219 23.90625 L 17.0625 23.90625 Z M 17.0625 27.183594 "/>
<path style=" stroke:none;fill-rule:nonzero;fill:url(#linear6);" d="M 22.242188 22.808594 C 21.9375 22.628906 21.9375 22.628906 21.820312 22.566406 C 21.582031 22.433594 21.410156 22.347656 21.175781 22.234375 C 20.941406 22.121094 20.695312 22.03125 20.449219 22.011719 C 20.328125 22 20.203125 22.007812 20.082031 22.03125 C 19.964844 22.058594 19.847656 22.109375 19.742188 22.167969 C 19.632812 22.238281 19.535156 22.320312 19.457031 22.414062 C 19.371094 22.507812 19.308594 22.617188 19.261719 22.734375 C 19.234375 22.8125 19.210938 22.886719 19.199219 22.96875 L 22.398438 22.96875 C 22.371094 22.933594 22.339844 22.910156 22.308594 22.878906 C 22.289062 22.851562 22.265625 22.832031 22.242188 22.808594 Z M 10.710938 22.699219 C 10.488281 22.636719 10.261719 22.582031 10.03125 22.550781 C 9.800781 22.523438 9.566406 22.515625 9.335938 22.542969 C 9.277344 22.550781 9.222656 22.5625 9.164062 22.574219 C 9.109375 22.582031 9.054688 22.597656 9 22.617188 C 8.890625 22.648438 8.78125 22.695312 8.679688 22.75 C 8.546875 22.820312 8.425781 22.890625 8.304688 22.96875 L 11.566406 22.96875 C 11.503906 22.945312 11.445312 22.941406 11.382812 22.917969 C 11.160156 22.839844 10.9375 22.765625 10.710938 22.699219 Z M 5.625 2.8125 L 5.625 22.96875 L 8.1875 22.96875 C 8.332031 22.859375 8.480469 22.761719 8.636719 22.667969 C 8.742188 22.605469 8.847656 22.554688 8.964844 22.515625 C 9.023438 22.492188 9.082031 22.476562 9.140625 22.460938 C 9.199219 22.445312 9.261719 22.433594 9.316406 22.425781 C 9.558594 22.382812 9.800781 22.382812 10.042969 22.402344 C 10.285156 22.425781 10.523438 22.472656 10.757812 22.527344 C 10.964844 22.578125 11.167969 22.636719 11.371094 22.695312 L 11.324219 22.652344 C 11.207031 22.535156 11.078125 22.429688 10.964844 22.304688 C 10.910156 22.242188 10.859375 22.171875 10.816406 22.101562 C 10.773438 22.027344 10.742188 21.949219 10.722656 21.867188 C 10.679688 21.703125 10.683594 21.53125 10.703125 21.367188 C 10.695312 21.53125 10.699219 21.703125 10.753906 21.859375 C 10.777344 21.933594 10.8125 22.011719 10.859375 22.078125 C 10.902344 22.144531 10.957031 22.207031 11.015625 22.261719 C 11.128906 22.378906 11.261719 22.476562 11.386719 22.585938 C 11.453125 22.640625 11.519531 22.695312 11.578125 22.757812 C 11.644531 22.78125 11.714844 22.796875 11.78125 22.816406 L 11.828125 22.832031 L 11.871094 22.847656 L 11.953125 22.871094 L 12.125 22.925781 C 12.179688 22.945312 12.234375 22.949219 12.285156 22.96875 L 19.070312 22.96875 C 19.082031 22.871094 19.097656 22.785156 19.128906 22.6875 C 19.171875 22.554688 19.238281 22.425781 19.324219 22.308594 C 19.414062 22.191406 19.519531 22.097656 19.636719 22.015625 C 19.757812 21.929688 19.886719 21.867188 20.03125 21.824219 C 20.136719 21.792969 20.25 21.777344 20.363281 21.773438 C 20.296875 21.757812 20.226562 21.738281 20.15625 21.722656 C 19.761719 21.617188 19.347656 21.578125 18.941406 21.605469 C 18.5 21.632812 18.058594 21.695312 17.613281 21.75 C 17.179688 21.804688 16.742188 21.859375 16.300781 21.867188 C 16.191406 21.871094 16.078125 21.867188 15.972656 21.863281 C 15.859375 21.855469 15.746094 21.839844 15.636719 21.820312 C 15.417969 21.785156 15.207031 21.734375 14.992188 21.695312 C 14.78125 21.65625 14.566406 21.621094 14.351562 21.625 C 14.242188 21.625 14.136719 21.636719 14.03125 21.664062 C 13.925781 21.6875 13.824219 21.730469 13.738281 21.792969 C 13.820312 21.722656 13.921875 21.675781 14.027344 21.644531 C 14.132812 21.609375 14.242188 21.59375 14.351562 21.585938 C 14.574219 21.570312 14.789062 21.59375 15.007812 21.617188 C 15.226562 21.644531 15.441406 21.679688 15.65625 21.707031 C 15.761719 21.714844 15.867188 21.726562 15.972656 21.722656 C 16.078125 21.71875 16.1875 21.714844 16.296875 21.710938 C 17.15625 21.644531 18 21.40625 18.878906 21.300781 C 19.332031 21.242188 19.785156 21.265625 20.234375 21.339844 C 20.679688 21.414062 21.117188 21.542969 21.53125 21.726562 C 21.578125 21.746094 21.617188 21.769531 21.660156 21.785156 C 21.582031 21.699219 21.503906 21.613281 21.421875 21.527344 C 21.058594 21.164062 20.636719 20.847656 20.1875 20.558594 C 19.960938 20.414062 19.726562 20.277344 19.488281 20.136719 C 19.25 20 19 19.855469 18.757812 19.691406 C 18.582031 19.570312 18.40625 19.445312 18.238281 19.304688 C 17.832031 19.328125 17.421875 19.402344 17.011719 19.496094 C 16.546875 19.601562 16.078125 19.734375 15.601562 19.851562 C 15.121094 19.96875 14.628906 20.070312 14.125 20.105469 C 13.875 20.125 13.621094 20.128906 13.371094 20.109375 C 13.242188 20.097656 13.121094 20.085938 12.992188 20.066406 L 12.898438 20.050781 L 12.808594 20.03125 C 12.746094 20.023438 12.683594 20.007812 12.625 19.992188 C 12.382812 19.9375 12.148438 19.871094 11.910156 19.808594 C 11.679688 19.746094 11.445312 19.6875 11.21875 19.664062 C 10.984375 19.644531 10.753906 19.660156 10.523438 19.714844 C 10.40625 19.738281 10.296875 19.773438 10.183594 19.816406 C 10.128906 19.832031 10.070312 19.859375 10.015625 19.878906 C 9.960938 19.902344 9.898438 19.925781 9.84375 19.949219 C 9.375 20.125 8.890625 20.214844 8.40625 20.277344 C 7.925781 20.339844 7.4375 20.390625 6.964844 20.507812 C 7.433594 20.367188 7.917969 20.285156 8.398438 20.199219 C 8.875 20.109375 9.347656 19.996094 9.789062 19.804688 C 9.84375 19.777344 9.894531 19.757812 9.949219 19.726562 C 10.007812 19.703125 10.0625 19.675781 10.121094 19.652344 C 10.238281 19.605469 10.355469 19.558594 10.476562 19.523438 C 10.722656 19.457031 10.980469 19.421875 11.234375 19.433594 C 11.363281 19.441406 11.492188 19.457031 11.617188 19.472656 C 11.449219 19.375 11.289062 19.265625 11.132812 19.152344 C 10.722656 18.859375 10.335938 18.53125 9.910156 18.269531 C 9.484375 18.003906 9.054688 17.75 8.625 17.484375 C 8.199219 17.21875 7.78125 16.933594 7.394531 16.613281 C 7.785156 16.929688 8.210938 17.199219 8.640625 17.457031 C 9.070312 17.714844 9.511719 17.960938 9.945312 18.222656 C 10.378906 18.476562 10.769531 18.796875 11.183594 19.078125 C 11.449219 19.257812 11.71875 19.429688 12.011719 19.546875 C 12.015625 19.546875 12.015625 19.546875 12.019531 19.550781 C 12.246094 19.597656 12.464844 19.648438 12.683594 19.683594 C 12.742188 19.695312 12.800781 19.703125 12.863281 19.710938 L 13.039062 19.734375 C 13.152344 19.746094 13.269531 19.753906 13.390625 19.757812 C 13.625 19.761719 13.859375 19.746094 14.09375 19.714844 C 14.5625 19.660156 15.023438 19.539062 15.484375 19.398438 C 15.527344 19.386719 15.566406 19.371094 15.613281 19.355469 C 15.363281 19.195312 15.105469 19.042969 14.84375 18.886719 C 14.476562 18.660156 14.109375 18.402344 13.792969 18.085938 L 13.339844 17.636719 C 13.1875 17.488281 13.035156 17.34375 12.871094 17.21875 C 12.707031 17.089844 12.53125 16.984375 12.34375 16.910156 C 12.253906 16.875 12.15625 16.839844 12.0625 16.820312 L 12.011719 16.949219 C 12.070312 17.039062 12.035156 17.183594 11.765625 17.394531 C 11.488281 17.613281 11.117188 17.636719 11.117188 17.636719 C 11.117188 17.636719 11.226562 17.28125 11.503906 17.0625 C 11.746094 16.875 11.886719 16.851562 11.96875 16.90625 L 12.011719 16.804688 C 11.925781 16.785156 11.839844 16.769531 11.753906 16.761719 C 11.703125 16.753906 11.652344 16.75 11.597656 16.746094 C 11.542969 16.742188 11.492188 16.738281 11.4375 16.734375 C 11.332031 16.726562 11.226562 16.726562 11.117188 16.722656 C 10.902344 16.722656 10.6875 16.722656 10.464844 16.699219 C 10.25 16.675781 10.027344 16.625 9.828125 16.519531 C 9.777344 16.496094 9.730469 16.464844 9.683594 16.4375 L 9.617188 16.394531 L 9.546875 16.347656 L 9.542969 16.34375 C 9.230469 16.132812 8.941406 15.890625 8.675781 15.621094 C 8.269531 15.199219 7.871094 14.75 7.589844 14.230469 C 7.886719 14.730469 8.289062 15.160156 8.707031 15.550781 C 8.9375 15.765625 9.183594 15.964844 9.441406 16.144531 C 9.496094 16.183594 9.550781 16.222656 9.605469 16.253906 L 9.671875 16.300781 L 9.742188 16.34375 C 9.785156 16.367188 9.832031 16.394531 9.878906 16.414062 C 10.0625 16.503906 10.269531 16.542969 10.476562 16.558594 C 10.683594 16.570312 10.898438 16.566406 11.113281 16.558594 L 11.152344 16.558594 L 11.148438 16.433594 C 11.054688 16.4375 10.9375 16.359375 10.796875 16.113281 C 10.617188 15.808594 10.644531 15.4375 10.644531 15.4375 C 10.644531 15.4375 10.980469 15.59375 11.160156 15.898438 C 11.339844 16.207031 11.316406 16.355469 11.214844 16.410156 C 11.210938 16.414062 11.203125 16.414062 11.199219 16.417969 L 11.203125 16.558594 L 11.4375 16.558594 C 11.492188 16.558594 11.550781 16.558594 11.601562 16.558594 C 11.65625 16.558594 11.707031 16.5625 11.765625 16.570312 C 11.984375 16.589844 12.207031 16.632812 12.417969 16.710938 C 12.628906 16.785156 12.828125 16.894531 13.007812 17.023438 C 13.191406 17.152344 13.355469 17.296875 13.515625 17.441406 L 13.992188 17.878906 C 14.292969 18.160156 14.644531 18.390625 15.011719 18.597656 C 15.359375 18.792969 15.722656 18.984375 16.070312 19.207031 C 16.34375 19.121094 16.613281 19.03125 16.894531 18.953125 C 17.132812 18.882812 17.378906 18.824219 17.625 18.773438 C 17.648438 18.769531 17.679688 18.761719 17.703125 18.757812 C 17.625 18.667969 17.550781 18.574219 17.480469 18.476562 C 17.300781 18.234375 17.15625 17.976562 17.03125 17.707031 C 16.910156 17.441406 16.8125 17.167969 16.730469 16.894531 L 16.703125 16.792969 L 16.6875 16.742188 L 16.671875 16.6875 L 16.621094 16.484375 C 16.589844 16.347656 16.558594 16.210938 16.523438 16.074219 C 16.503906 15.988281 16.484375 15.898438 16.464844 15.808594 C 16.128906 15.75 15.804688 15.640625 15.5 15.503906 C 15.179688 15.363281 14.878906 15.199219 14.582031 15.039062 C 14.285156 14.878906 13.984375 14.730469 13.671875 14.617188 C 13.363281 14.5 13.042969 14.425781 12.710938 14.417969 L 12.585938 14.417969 C 12.542969 14.417969 12.5 14.417969 12.457031 14.414062 C 12.371094 14.414062 12.28125 14.402344 12.195312 14.390625 C 12.101562 14.378906 12.011719 14.359375 11.917969 14.339844 C 11.554688 14.253906 11.203125 14.117188 10.882812 13.929688 C 10.539062 13.730469 10.226562 13.480469 9.972656 13.179688 C 9.75 12.917969 9.582031 12.613281 9.492188 12.289062 C 9.597656 12.609375 9.777344 12.90625 10.007812 13.152344 C 10.234375 13.398438 10.507812 13.605469 10.796875 13.769531 C 11.089844 13.9375 11.40625 14.058594 11.722656 14.144531 C 11.882812 14.183594 12.050781 14.214844 12.214844 14.230469 C 12.296875 14.238281 12.378906 14.242188 12.460938 14.242188 C 12.5 14.242188 12.542969 14.242188 12.585938 14.238281 C 12.628906 14.234375 12.671875 14.234375 12.714844 14.234375 C 13.066406 14.226562 13.417969 14.289062 13.75 14.398438 C 14.085938 14.503906 14.402344 14.648438 14.707031 14.792969 C 15.011719 14.9375 15.316406 15.085938 15.625 15.207031 C 15.878906 15.304688 16.132812 15.386719 16.394531 15.429688 C 16.382812 15.367188 16.371094 15.308594 16.363281 15.246094 C 16.324219 14.992188 16.296875 14.738281 16.28125 14.484375 C 16 14.371094 15.730469 14.234375 15.476562 14.070312 C 15.195312 13.890625 14.9375 13.675781 14.703125 13.441406 C 14.230469 12.972656 13.859375 12.429688 13.535156 11.867188 C 13.515625 11.832031 13.496094 11.792969 13.472656 11.753906 C 13.351562 11.859375 13.207031 11.9375 13.058594 11.992188 C 12.878906 12.058594 12.6875 12.09375 12.492188 12.105469 C 12.300781 12.113281 12.109375 12.09375 11.925781 12.039062 C 11.832031 12.011719 11.742188 11.976562 11.660156 11.921875 C 11.574219 11.871094 11.503906 11.8125 11.425781 11.753906 C 11.351562 11.695312 11.277344 11.640625 11.199219 11.597656 C 11.15625 11.574219 11.117188 11.558594 11.074219 11.539062 L 10.945312 11.488281 C 10.769531 11.425781 10.59375 11.367188 10.410156 11.304688 C 10.054688 11.183594 9.695312 11.066406 9.351562 10.910156 C 9.699219 11.058594 10.058594 11.167969 10.417969 11.273438 C 10.597656 11.328125 10.777344 11.382812 10.953125 11.445312 L 11.089844 11.492188 C 11.132812 11.507812 11.179688 11.527344 11.222656 11.550781 C 11.3125 11.59375 11.386719 11.648438 11.464844 11.703125 C 11.539062 11.757812 11.617188 11.8125 11.695312 11.859375 C 11.777344 11.90625 11.859375 11.9375 11.945312 11.964844 C 12.125 12.011719 12.308594 12.027344 12.492188 12.011719 C 12.671875 11.996094 12.855469 11.957031 13.023438 11.890625 C 13.171875 11.835938 13.308594 11.753906 13.421875 11.644531 C 12.839844 10.578125 12.410156 9.449219 11.820312 8.394531 C 12.070312 8.789062 12.292969 9.203125 12.511719 9.617188 C 12.636719 9.515625 12.734375 9.378906 12.796875 9.226562 C 12.863281 9.058594 12.902344 8.878906 12.933594 8.695312 C 12.96875 8.515625 13 8.332031 13.070312 8.15625 C 13.105469 8.070312 13.152344 7.984375 13.207031 7.914062 C 13.230469 7.882812 13.265625 7.863281 13.292969 7.839844 C 13.269531 7.867188 13.242188 7.894531 13.222656 7.921875 C 13.167969 8 13.128906 8.082031 13.101562 8.167969 C 13.042969 8.339844 13.019531 8.523438 12.996094 8.707031 C 12.96875 8.894531 12.945312 9.078125 12.882812 9.257812 C 12.847656 9.351562 12.808594 9.4375 12.753906 9.519531 C 12.703125 9.597656 12.644531 9.667969 12.574219 9.726562 C 12.636719 9.847656 12.699219 9.96875 12.761719 10.085938 C 13.058594 10.65625 13.363281 11.226562 13.703125 11.769531 C 14.042969 12.304688 14.433594 12.816406 14.902344 13.238281 C 15.132812 13.449219 15.382812 13.632812 15.652344 13.789062 C 15.847656 13.90625 16.054688 14.003906 16.269531 14.085938 C 16.265625 13.90625 16.269531 13.726562 16.277344 13.546875 C 16.300781 13.113281 16.367188 12.679688 16.472656 12.257812 C 16.308594 12.273438 16.144531 12.253906 15.988281 12.207031 C 15.824219 12.160156 15.671875 12.082031 15.527344 11.988281 C 15.246094 11.792969 15.015625 11.539062 14.839844 11.253906 C 14.660156 10.96875 14.535156 10.652344 14.472656 10.324219 C 14.441406 10.160156 14.429688 9.988281 14.4375 9.820312 C 14.449219 9.65625 14.488281 9.488281 14.554688 9.332031 C 14.589844 9.253906 14.632812 9.179688 14.683594 9.109375 C 14.734375 9.042969 14.792969 8.980469 14.855469 8.925781 C 14.988281 8.816406 15.136719 8.738281 15.28125 8.660156 C 15.425781 8.585938 15.574219 8.511719 15.710938 8.417969 C 15.777344 8.371094 15.839844 8.320312 15.902344 8.265625 C 15.964844 8.207031 16.023438 8.152344 16.078125 8.089844 C 16.1875 7.96875 16.273438 7.824219 16.332031 7.671875 C 16.394531 7.519531 16.429688 7.355469 16.445312 7.195312 C 16.472656 6.863281 16.425781 6.53125 16.367188 6.210938 C 16.429688 6.53125 16.480469 6.863281 16.457031 7.195312 C 16.449219 7.359375 16.414062 7.523438 16.351562 7.679688 C 16.292969 7.835938 16.207031 7.980469 16.097656 8.109375 C 16.042969 8.175781 15.984375 8.230469 15.929688 8.289062 C 15.867188 8.347656 15.804688 8.402344 15.734375 8.449219 C 15.601562 8.546875 15.453125 8.625 15.308594 8.699219 C 15.160156 8.777344 15.015625 8.859375 14.898438 8.964844 C 14.773438 9.070312 14.679688 9.199219 14.617188 9.355469 C 14.496094 9.65625 14.492188 9.992188 14.550781 10.308594 C 14.617188 10.628906 14.746094 10.933594 14.921875 11.207031 C 15.101562 11.476562 15.320312 11.722656 15.59375 11.894531 C 15.730469 11.984375 15.875 12.050781 16.027344 12.09375 C 16.179688 12.140625 16.339844 12.152344 16.496094 12.132812 L 16.5 12.179688 C 16.523438 12.078125 16.554688 11.976562 16.585938 11.878906 C 16.695312 11.546875 16.816406 11.226562 16.941406 10.90625 C 16.925781 10.835938 16.902344 10.765625 16.863281 10.703125 C 16.789062 10.566406 16.667969 10.445312 16.546875 10.335938 C 16.421875 10.226562 16.289062 10.125 16.179688 9.988281 C 16.125 9.925781 16.082031 9.84375 16.070312 9.761719 C 16.058594 9.671875 16.085938 9.589844 16.125 9.515625 C 16.089844 9.59375 16.066406 9.675781 16.085938 9.757812 C 16.097656 9.835938 16.148438 9.910156 16.203125 9.96875 C 16.316406 10.085938 16.453125 10.179688 16.589844 10.285156 C 16.71875 10.390625 16.855469 10.503906 16.949219 10.652344 C 16.96875 10.6875 16.988281 10.71875 17.003906 10.753906 C 17.273438 10.089844 17.5625 9.441406 17.816406 8.78125 C 17.828125 8.75 17.839844 8.726562 17.847656 8.695312 L 17.660156 8.625 C 17.65625 8.628906 17.65625 8.628906 17.652344 8.632812 C 17.5625 8.703125 17.417969 8.675781 17.191406 8.398438 C 16.96875 8.121094 16.941406 7.753906 16.941406 7.753906 C 16.941406 7.753906 17.300781 7.859375 17.523438 8.128906 C 17.699219 8.351562 17.738281 8.488281 17.695312 8.578125 L 17.871094 8.640625 C 17.949219 8.429688 18.011719 8.214844 18.058594 7.992188 C 18.113281 7.726562 18.136719 7.453125 18.117188 7.179688 C 18.101562 6.90625 18.050781 6.632812 17.988281 6.367188 C 17.929688 6.097656 17.863281 5.824219 17.808594 5.554688 C 17.878906 5.824219 17.953125 6.089844 18.027344 6.359375 C 18.101562 6.628906 18.164062 6.894531 18.199219 7.175781 C 18.226562 7.421875 18.222656 7.675781 18.191406 7.921875 L 18.300781 7.914062 C 18.285156 7.820312 18.355469 7.695312 18.582031 7.53125 C 18.871094 7.324219 19.238281 7.3125 19.238281 7.3125 C 19.238281 7.3125 19.117188 7.664062 18.832031 7.875 C 18.546875 8.078125 18.398438 8.074219 18.328125 7.980469 C 18.324219 7.976562 18.320312 7.972656 18.320312 7.964844 L 18.1875 7.980469 C 18.1875 7.988281 18.183594 8 18.183594 8.015625 C 18.140625 8.292969 18.066406 8.566406 17.976562 8.828125 C 17.800781 9.355469 17.601562 9.875 17.414062 10.394531 C 17.382812 10.46875 17.359375 10.542969 17.332031 10.617188 C 17.363281 10.589844 17.394531 10.558594 17.425781 10.53125 C 17.53125 10.4375 17.640625 10.347656 17.753906 10.261719 C 17.8125 10.222656 17.871094 10.179688 17.929688 10.140625 L 18.015625 10.085938 L 18.027344 10.078125 L 18.035156 10.074219 L 18.039062 10.070312 L 18.042969 10.070312 L 18.066406 10.058594 C 18.082031 10.050781 18.097656 10.042969 18.117188 10.039062 C 18.183594 10.007812 18.253906 9.988281 18.328125 9.980469 C 18.398438 9.96875 18.464844 9.957031 18.523438 9.929688 C 18.582031 9.898438 18.632812 9.851562 18.679688 9.800781 C 18.703125 9.777344 18.726562 9.75 18.746094 9.722656 C 18.765625 9.695312 18.785156 9.667969 18.800781 9.632812 C 18.859375 9.511719 18.890625 9.375 18.921875 9.234375 C 18.953125 9.097656 18.972656 8.960938 19.003906 8.820312 C 18.976562 8.960938 18.960938 9.101562 18.9375 9.238281 C 18.910156 9.375 18.886719 9.515625 18.828125 9.648438 C 18.8125 9.683594 18.796875 9.714844 18.773438 9.742188 C 18.75 9.773438 18.730469 9.800781 18.707031 9.828125 C 18.660156 9.882812 18.609375 9.933594 18.546875 9.96875 C 18.480469 10.003906 18.402344 10.019531 18.339844 10.03125 C 18.269531 10.042969 18.207031 10.0625 18.144531 10.09375 C 18.128906 10.101562 18.117188 10.105469 18.101562 10.113281 L 18.078125 10.128906 L 18.074219 10.128906 L 18.0625 10.140625 L 17.972656 10.203125 C 17.917969 10.242188 17.863281 10.285156 17.808594 10.328125 C 17.699219 10.417969 17.59375 10.507812 17.492188 10.601562 C 17.402344 10.6875 17.316406 10.78125 17.246094 10.878906 C 17.210938 10.980469 17.175781 11.078125 17.144531 11.175781 C 17.097656 11.304688 17.058594 11.4375 17.015625 11.566406 L 16.953125 11.761719 C 16.933594 11.828125 16.917969 11.894531 16.898438 11.957031 C 16.761719 12.480469 16.6875 13.019531 16.679688 13.554688 C 16.675781 14.09375 16.738281 14.632812 16.84375 15.160156 C 16.898438 15.425781 16.960938 15.691406 17.035156 15.953125 C 17.070312 16.082031 17.105469 16.214844 17.144531 16.34375 L 17.207031 16.542969 L 17.269531 16.730469 C 17.449219 17.234375 17.675781 17.707031 17.996094 18.101562 C 18.3125 18.503906 18.722656 18.816406 19.175781 19.089844 C 19.402344 19.226562 19.636719 19.351562 19.882812 19.480469 L 19.90625 19.488281 C 19.925781 19.394531 19.9375 19.300781 19.953125 19.210938 C 19.980469 19.015625 20.003906 18.816406 20.003906 18.625 C 20.003906 18.433594 19.980469 18.242188 19.925781 18.050781 C 19.875 17.863281 19.804688 17.679688 19.71875 17.5 C 19.699219 17.457031 19.675781 17.410156 19.65625 17.367188 C 19.632812 17.320312 19.609375 17.28125 19.582031 17.238281 C 19.550781 17.1875 19.542969 17.175781 19.511719 17.128906 L 19.480469 17.125 C 19.433594 17.117188 19.382812 17.117188 19.332031 17.125 C 19.28125 17.132812 19.230469 17.148438 19.179688 17.167969 C 19.132812 17.183594 19.085938 17.214844 19.046875 17.25 C 19.011719 17.285156 18.992188 17.339844 18.996094 17.394531 C 18.980469 17.339844 18.992188 17.277344 19.023438 17.226562 C 19.054688 17.175781 19.101562 17.140625 19.148438 17.109375 C 19.199219 17.074219 19.253906 17.050781 19.308594 17.03125 C 19.347656 17.019531 19.382812 17.011719 19.421875 17.007812 L 19.410156 16.996094 C 19.289062 16.835938 19.15625 16.679688 19.035156 16.515625 C 18.90625 16.351562 18.785156 16.1875 18.691406 16.003906 C 18.597656 15.824219 18.527344 15.625 18.527344 15.417969 C 18.546875 15.621094 18.628906 15.8125 18.734375 15.980469 C 18.839844 16.148438 18.96875 16.304688 19.105469 16.453125 C 19.246094 16.605469 19.386719 16.75 19.523438 16.90625 C 19.59375 16.980469 19.660156 17.0625 19.722656 17.148438 C 19.757812 17.191406 19.785156 17.234375 19.816406 17.28125 C 19.84375 17.324219 19.871094 17.371094 19.894531 17.414062 C 19.996094 17.59375 20.089844 17.785156 20.160156 17.984375 C 20.160156 17.988281 20.164062 17.992188 20.164062 17.996094 C 20.171875 17.988281 20.179688 17.984375 20.1875 17.976562 C 20.214844 17.953125 20.246094 17.9375 20.28125 17.921875 C 20.34375 17.894531 20.40625 17.867188 20.472656 17.847656 C 20.601562 17.8125 20.734375 17.789062 20.867188 17.777344 C 20.742188 17.808594 20.613281 17.851562 20.496094 17.90625 C 20.4375 17.9375 20.378906 17.964844 20.328125 18 C 20.277344 18.039062 20.230469 18.078125 20.210938 18.125 L 20.207031 18.136719 C 20.253906 18.296875 20.28125 18.449219 20.292969 18.613281 C 20.3125 18.828125 20.304688 19.042969 20.289062 19.25 C 20.28125 19.390625 20.265625 19.535156 20.25 19.671875 C 20.382812 19.742188 20.511719 19.8125 20.640625 19.890625 C 21.058594 20.132812 21.472656 20.402344 21.855469 20.726562 C 21.898438 20.492188 21.9375 20.261719 21.96875 20.027344 C 22 19.796875 22.027344 19.5625 22.042969 19.335938 C 22.046875 19.21875 22.054688 19.105469 22.054688 18.988281 L 22.054688 18.828125 C 22.058594 18.84375 22.054688 18.8125 22.054688 18.816406 L 22.054688 18.789062 L 22.050781 18.753906 C 22.046875 18.726562 22.046875 18.703125 22.042969 18.675781 C 22.019531 18.472656 21.964844 18.273438 21.875 18.078125 C 21.785156 17.886719 21.671875 17.695312 21.53125 17.515625 C 21.398438 17.332031 21.242188 17.15625 21.082031 16.980469 L 20.839844 16.714844 L 20.714844 16.582031 L 20.664062 16.53125 L 20.648438 16.511719 L 20.589844 16.445312 C 20.308594 16.125 20.046875 15.792969 19.8125 15.441406 C 19.746094 15.394531 19.679688 15.34375 19.613281 15.304688 C 19.546875 15.261719 19.46875 15.230469 19.390625 15.222656 C 19.308594 15.210938 19.226562 15.210938 19.148438 15.222656 C 18.980469 15.257812 18.800781 15.285156 18.632812 15.265625 C 18.457031 15.246094 18.296875 15.175781 18.144531 15.097656 C 18.300781 15.171875 18.464844 15.226562 18.632812 15.234375 C 18.804688 15.246094 18.972656 15.210938 19.136719 15.167969 C 19.222656 15.144531 19.3125 15.136719 19.40625 15.144531 C 19.496094 15.152344 19.585938 15.183594 19.664062 15.222656 C 19.664062 15.226562 19.667969 15.226562 19.671875 15.230469 C 19.417969 14.824219 19.199219 14.394531 19.046875 13.933594 C 18.890625 13.46875 18.804688 12.96875 18.824219 12.480469 C 18.839844 11.988281 18.949219 11.507812 19.144531 11.058594 C 18.992188 11.515625 18.914062 12 18.941406 12.476562 C 18.960938 12.953125 19.082031 13.417969 19.265625 13.851562 C 19.347656 14.039062 19.4375 14.214844 19.535156 14.390625 C 19.589844 14.347656 19.644531 14.3125 19.699219 14.277344 C 19.789062 14.214844 19.867188 14.148438 19.925781 14.066406 C 20.054688 13.890625 20.167969 13.707031 20.25 13.507812 C 20.285156 13.363281 20.332031 13.214844 20.355469 13.070312 C 20.363281 12.867188 20.269531 12.664062 20.292969 12.453125 C 20.285156 12.664062 20.386719 12.855469 20.386719 13.070312 C 20.371094 13.222656 20.332031 13.371094 20.304688 13.519531 L 20.304688 13.523438 C 20.226562 13.730469 20.125 13.929688 20 14.113281 C 19.921875 14.238281 19.796875 14.332031 19.691406 14.414062 C 19.679688 14.480469 19.671875 14.527344 19.660156 14.59375 C 19.761719 14.757812 19.871094 14.914062 19.984375 15.070312 C 20.269531 15.445312 20.589844 15.792969 20.929688 16.128906 L 20.996094 16.191406 L 21.011719 16.207031 L 21.019531 16.210938 L 21.058594 16.25 L 21.195312 16.371094 L 21.464844 16.621094 C 21.640625 16.785156 21.824219 16.960938 21.988281 17.15625 C 22.117188 17.300781 22.238281 17.457031 22.347656 17.625 C 22.480469 17.539062 22.617188 17.457031 22.761719 17.390625 C 22.851562 17.34375 22.953125 17.328125 23.046875 17.320312 C 23.140625 17.3125 23.234375 17.3125 23.328125 17.296875 C 23.238281 17.324219 23.144531 17.335938 23.050781 17.351562 C 22.957031 17.367188 22.867188 17.394531 22.792969 17.445312 C 22.65625 17.523438 22.527344 17.617188 22.402344 17.71875 C 22.417969 17.746094 22.433594 17.769531 22.449219 17.796875 C 22.578125 18.03125 22.679688 18.292969 22.734375 18.570312 C 22.742188 18.601562 22.75 18.636719 22.753906 18.671875 L 22.761719 18.726562 L 22.765625 18.746094 L 22.765625 18.765625 C 22.765625 18.75 22.769531 18.785156 22.765625 18.785156 L 22.765625 18.789062 C 22.769531 18.851562 22.773438 18.914062 22.777344 18.980469 C 22.785156 19.105469 22.789062 19.234375 22.792969 19.359375 C 22.796875 19.617188 22.789062 19.867188 22.773438 20.113281 C 22.746094 20.589844 22.695312 21.058594 22.636719 21.523438 C 22.648438 21.535156 22.660156 21.550781 22.664062 21.5625 C 22.714844 21.621094 22.761719 21.679688 22.804688 21.738281 L 22.929688 21.917969 C 23.019531 22.039062 23.097656 22.164062 23.175781 22.292969 C 23.308594 22.511719 23.429688 22.742188 23.539062 22.972656 L 24.375 22.972656 L 24.375 17.171875 C 24.21875 17.023438 24.097656 16.882812 23.976562 16.742188 C 23.742188 16.476562 23.488281 16.214844 23.238281 15.9375 C 22.992188 15.65625 22.75 15.355469 22.539062 15.027344 L 22.5 14.964844 L 22.496094 14.957031 L 22.484375 14.945312 L 22.464844 14.914062 C 22.441406 14.875 22.414062 14.832031 22.390625 14.792969 C 22.339844 14.710938 22.289062 14.628906 22.242188 14.542969 C 22.152344 14.378906 22.066406 14.210938 21.988281 14.035156 C 21.800781 14.132812 21.605469 14.230469 21.398438 14.292969 C 21.277344 14.335938 21.152344 14.363281 21.023438 14.367188 C 20.960938 14.371094 20.894531 14.363281 20.835938 14.347656 C 20.773438 14.335938 20.714844 14.304688 20.667969 14.265625 C 20.773438 14.339844 20.902344 14.351562 21.023438 14.339844 C 21.148438 14.324219 21.261719 14.289062 21.378906 14.238281 C 21.578125 14.15625 21.765625 14.046875 21.945312 13.933594 C 21.8125 13.617188 21.707031 13.285156 21.636719 12.945312 C 21.558594 12.570312 21.523438 12.179688 21.542969 11.800781 C 21.550781 11.605469 21.570312 11.417969 21.605469 11.230469 C 21.621094 11.136719 21.640625 11.039062 21.664062 10.949219 L 21.730469 10.6875 C 21.722656 10.6875 21.714844 10.6875 21.703125 10.691406 C 21.574219 10.726562 21.441406 10.75 21.308594 10.742188 C 21.042969 10.734375 20.785156 10.671875 20.542969 10.566406 C 20.300781 10.460938 20.078125 10.316406 19.898438 10.125 C 19.71875 9.9375 19.585938 9.703125 19.550781 9.445312 C 19.597656 9.699219 19.738281 9.925781 19.921875 10.105469 C 20.105469 10.28125 20.328125 10.417969 20.5625 10.511719 C 20.796875 10.601562 21.054688 10.652344 21.304688 10.652344 C 21.425781 10.652344 21.550781 10.628906 21.667969 10.589844 C 21.703125 10.582031 21.730469 10.574219 21.765625 10.5625 C 21.855469 10.246094 21.960938 9.941406 22.0625 9.636719 C 22.125 9.4375 22.191406 9.242188 22.242188 9.039062 C 22.1875 8.644531 22.074219 8.257812 21.886719 7.902344 C 21.683594 7.503906 21.398438 7.148438 21.046875 6.878906 C 20.867188 6.738281 20.691406 6.59375 20.535156 6.425781 C 20.378906 6.261719 20.242188 6.074219 20.160156 5.863281 C 20.070312 5.652344 20.042969 5.425781 20.039062 5.199219 C 20.035156 4.972656 20.054688 4.75 20.082031 4.523438 C 20.0625 4.75 20.046875 4.972656 20.054688 5.199219 C 20.0625 5.425781 20.101562 5.648438 20.1875 5.851562 C 20.273438 6.058594 20.414062 6.238281 20.570312 6.398438 C 20.730469 6.558594 20.902344 6.695312 21.085938 6.828125 C 21.453125 7.097656 21.753906 7.457031 21.972656 7.855469 C 22.125 8.136719 22.234375 8.4375 22.308594 8.75 C 22.320312 8.703125 22.328125 8.652344 22.332031 8.605469 C 22.382812 8.261719 22.375 7.902344 22.289062 7.558594 C 22.246094 7.386719 22.1875 7.222656 22.117188 7.054688 C 22.046875 6.886719 21.972656 6.71875 21.898438 6.558594 C 21.746094 6.230469 21.574219 5.90625 21.363281 5.613281 C 21.597656 5.890625 21.789062 6.203125 21.964844 6.519531 C 22.054688 6.679688 22.140625 6.839844 22.21875 7.003906 C 22.269531 7.101562 22.320312 7.203125 22.363281 7.308594 C 22.496094 7.195312 22.59375 7.039062 22.664062 6.867188 C 22.742188 6.667969 22.792969 6.453125 22.84375 6.234375 C 22.894531 6.019531 22.949219 5.796875 23.050781 5.597656 C 23.101562 5.5 23.171875 5.40625 23.253906 5.332031 C 23.34375 5.261719 23.445312 5.210938 23.554688 5.183594 C 23.449219 5.214844 23.34375 5.265625 23.265625 5.34375 C 23.1875 5.421875 23.125 5.511719 23.078125 5.613281 C 22.984375 5.8125 22.945312 6.03125 22.902344 6.246094 C 22.859375 6.464844 22.824219 6.6875 22.746094 6.902344 C 22.710938 7.011719 22.660156 7.117188 22.597656 7.214844 C 22.546875 7.292969 22.480469 7.367188 22.40625 7.429688 C 22.414062 7.457031 22.425781 7.484375 22.4375 7.515625 C 22.496094 7.691406 22.535156 7.878906 22.558594 8.0625 C 22.578125 8.253906 22.578125 8.441406 22.566406 8.625 C 22.535156 9 22.449219 9.367188 22.359375 9.71875 C 22.265625 10.070312 22.171875 10.421875 22.105469 10.769531 L 22.054688 11.035156 C 22.042969 11.117188 22.03125 11.203125 22.019531 11.289062 C 22.003906 11.457031 21.996094 11.628906 22.003906 11.804688 C 22.019531 12.488281 22.222656 13.160156 22.546875 13.769531 C 22.625 13.921875 22.714844 14.070312 22.808594 14.210938 C 22.855469 14.285156 22.902344 14.351562 22.953125 14.425781 C 22.980469 14.460938 23.003906 14.496094 23.03125 14.527344 L 23.113281 14.640625 C 23.304688 14.898438 23.527344 15.136719 23.765625 15.375 C 23.773438 15.332031 23.789062 15.292969 23.804688 15.257812 C 23.878906 15.050781 23.980469 14.859375 24.082031 14.679688 C 24.167969 14.535156 24.292969 14.390625 24.375 14.25 L 24.375 10.253906 C 24.351562 10.195312 24.285156 10.136719 24.261719 10.082031 C 24.105469 9.703125 23.941406 9.328125 23.785156 8.949219 C 23.632812 8.570312 23.488281 8.183594 23.386719 7.785156 C 23.285156 7.386719 23.226562 6.976562 23.257812 6.5625 C 23.242188 6.972656 23.316406 7.382812 23.433594 7.773438 C 23.550781 8.164062 23.707031 8.542969 23.871094 8.917969 C 23.980469 9.15625 24.09375 9.394531 24.203125 9.632812 C 24.179688 9.476562 24.167969 9.324219 24.167969 9.167969 C 24.167969 8.964844 24.183594 8.761719 24.230469 8.566406 C 24.257812 8.46875 24.332031 8.367188 24.375 8.269531 L 24.375 2.8125 Z M 24.375 15.90625 L 24.375 14.90625 C 24.246094 15.160156 24.097656 15.410156 24.066406 15.660156 C 24.15625 15.738281 24.289062 15.824219 24.375 15.90625 Z M 24.261719 9.15625 C 24.269531 9.34375 24.335938 9.539062 24.375 9.722656 L 24.375 8.472656 C 24.367188 8.507812 24.316406 8.539062 24.308594 8.570312 C 24.265625 8.761719 24.253906 8.960938 24.261719 9.15625 Z M 24.261719 9.15625 "/>
</g>
</svg>
