<?xml version="1.0" encoding="UTF-8"?>
<svg xmlns="http://www.w3.org/2000/svg" xmlns:xlink="http://www.w3.org/1999/xlink" viewBox="0 0 30 30" width="30px" height="30px">
<defs>
<linearGradient id="linear0" gradientUnits="userSpaceOnUse" x1="86" y1="13.88631" x2="86" y2="158.5625" gradientTransform="matrix(0.174419,0,0,0.174419,0,0)">
<stop offset="0" style="stop-color:rgb(0%,77.64706%,100%);stop-opacity:1;"/>
<stop offset="1" style="stop-color:rgb(0%,44.705883%,100%);stop-opacity:1;"/>
</linearGradient>
<linearGradient id="linear1" gradientUnits="userSpaceOnUse" x1="76.187943" y1="13.88631" x2="76.187943" y2="158.5625" gradientTransform="matrix(0.174419,0,0,0.174419,0,0)">
<stop offset="0" style="stop-color:rgb(0%,77.64706%,100%);stop-opacity:1;"/>
<stop offset="1" style="stop-color:rgb(0%,44.705883%,100%);stop-opacity:1;"/>
</linearGradient>
<linearGradient id="linear2" gradientUnits="userSpaceOnUse" x1="62.484379" y1="13.88631" x2="62.484379" y2="158.5625" gradientTransform="matrix(0.174419,0,0,0.174419,0,0)">
<stop offset="0" style="stop-color:rgb(0%,77.64706%,100%);stop-opacity:1;"/>
<stop offset="1" style="stop-color:rgb(0%,44.705883%,100%);stop-opacity:1;"/>
</linearGradient>
<linearGradient id="linear3" gradientUnits="userSpaceOnUse" x1="100.646881" y1="11.92175" x2="100.646881" y2="159.822937" gradientTransform="matrix(0.174419,0,0,0.174419,0,0)">
<stop offset="0" style="stop-color:rgb(43.921569%,87.450981%,100%);stop-opacity:1;"/>
<stop offset="1" style="stop-color:rgb(43.921569%,68.627453%,100%);stop-opacity:1;"/>
</linearGradient>
</defs>
<g id="surface654868">
<path style=" stroke:none;fill-rule:nonzero;fill:url(#linear0);" d="M 13.125 27.65625 C 12.9375 27.65625 12.761719 27.539062 12.691406 27.359375 C 11.757812 25.007812 10.019531 20.625 8.730469 20.625 C 8.128906 20.625 7.53125 21.011719 7.527344 21.015625 C 7.363281 21.125 7.148438 21.121094 6.992188 21.003906 L 1.132812 16.785156 C 0.996094 16.6875 0.921875 16.519531 0.941406 16.351562 C 0.960938 16.183594 1.070312 16.035156 1.226562 15.972656 L 8.945312 12.804688 C 9.292969 12.296875 10.628906 10.433594 12.078125 9.875 C 12.296875 9.789062 12.480469 9.722656 12.636719 9.664062 C 13.417969 9.371094 13.417969 9.371094 14.019531 8.804688 L 14.152344 8.679688 C 14.96875 7.917969 16.523438 5.515625 17.003906 4.734375 C 17.058594 4.644531 17.117188 4.546875 17.179688 4.441406 C 17.703125 3.554688 18.421875 2.34375 19.511719 2.34375 C 20.761719 2.34375 21.429688 3.632812 22.167969 5.320312 C 22.847656 6.871094 24.664062 12.003906 25.40625 14.207031 C 27.191406 19.507812 28.996094 23.195312 29.015625 23.230469 C 29.105469 23.417969 29.0625 23.640625 28.910156 23.78125 C 28.757812 23.921875 28.53125 23.949219 28.351562 23.839844 C 28.316406 23.816406 27.40625 23.265625 25.917969 21.777344 C 24.8125 20.671875 23.914062 20.15625 23.085938 20.15625 C 21.628906 20.15625 20.597656 21.316406 19.296875 22.78125 L 19.21875 22.871094 C 19.0625 23.042969 18.894531 23.242188 18.707031 23.460938 C 17.414062 24.976562 15.457031 27.265625 13.203125 27.648438 C 13.175781 27.65625 13.152344 27.65625 13.125 27.65625 Z M 8.730469 19.6875 C 10.460938 19.6875 11.832031 22.675781 13.414062 26.640625 C 15.195312 26.128906 16.867188 24.171875 17.996094 22.851562 C 18.183594 22.628906 18.359375 22.425781 18.515625 22.246094 L 18.59375 22.160156 C 19.996094 20.582031 21.207031 19.21875 23.085938 19.21875 C 24.507812 19.21875 25.699219 20.230469 26.582031 21.113281 C 26.863281 21.394531 27.121094 21.640625 27.351562 21.851562 C 26.648438 20.242188 25.578125 17.652344 24.515625 14.503906 C 23.75 12.230469 21.949219 7.160156 21.308594 5.695312 C 20.621094 4.128906 20.132812 3.28125 19.511719 3.28125 C 18.953125 3.28125 18.347656 4.304688 17.988281 4.917969 C 17.921875 5.027344 17.859375 5.132812 17.800781 5.226562 C 17.78125 5.257812 15.871094 8.355469 14.792969 9.367188 L 14.660156 9.488281 C 13.945312 10.164062 13.898438 10.191406 12.964844 10.542969 C 12.8125 10.597656 12.632812 10.667969 12.414062 10.75 C 11.28125 11.1875 10.035156 12.835938 9.652344 13.4375 C 9.601562 13.519531 9.523438 13.582031 9.4375 13.617188 L 2.367188 16.519531 L 7.296875 20.070312 C 7.613281 19.90625 8.152344 19.6875 8.730469 19.6875 Z M 8.730469 19.6875 "/>
<path style=" stroke:none;fill-rule:nonzero;fill:url(#linear1);" d="M 7.464844 21.050781 L 7.066406 20.203125 C 7.09375 20.1875 9.96875 18.796875 12.203125 15.332031 C 14.328125 12.039062 15.375 9.46875 15.941406 8.089844 C 16.082031 7.738281 16.195312 7.46875 16.277344 7.296875 C 16.484375 6.867188 16.683594 6.355469 16.894531 5.8125 C 17.554688 4.105469 18.238281 2.34375 19.511719 2.34375 L 19.511719 3.28125 C 18.878906 3.28125 18.238281 4.9375 17.769531 6.148438 C 17.550781 6.710938 17.34375 7.242188 17.121094 7.703125 C 17.042969 7.867188 16.941406 8.113281 16.808594 8.441406 C 16.234375 9.851562 15.164062 12.476562 12.992188 15.839844 C 10.601562 19.542969 7.59375 20.988281 7.464844 21.050781 Z M 7.464844 21.050781 "/>
<path style=" stroke:none;fill-rule:nonzero;fill:url(#linear2);" d="M 12.257812 16.019531 L 8.976562 13.558594 L 9.539062 12.808594 L 12.820312 15.269531 Z M 12.257812 16.019531 "/>
<path style=" stroke:none;fill-rule:nonzero;fill:url(#linear3);" d="M 17.894531 21.539062 C 19.355469 19.890625 20.738281 18.335938 22.96875 18.28125 C 22.96875 18.28125 21.386719 11.308594 20.039062 5.566406 C 19.765625 4.398438 19.65625 4.21875 19.542969 4.21875 C 19.464844 4.21875 19.371094 4.390625 19.300781 4.785156 C 18.910156 6.890625 17.070312 14.730469 15.585938 18.515625 C 15.019531 19.960938 14.003906 20.8125 13.125 21.210938 C 12.722656 21.394531 12.140625 21.5625 12.140625 21.5625 C 12.75 22.628906 13.328125 23.945312 13.925781 25.40625 C 15.183594 24.699219 16.417969 23.253906 17.28125 22.242188 C 17.476562 22.015625 17.65625 21.808594 17.816406 21.625 Z M 17.894531 21.539062 "/>
</g>
</svg>
