<?xml version="1.0" encoding="UTF-8"?>
<svg xmlns="http://www.w3.org/2000/svg" xmlns:xlink="http://www.w3.org/1999/xlink" viewBox="0 0 30 30" width="30px" height="30px">
<defs>
<linearGradient id="linear0" gradientUnits="userSpaceOnUse" x1="86" y1="24.410561" x2="86" y2="146.941757" gradientTransform="matrix(0.174419,0,0,0.174419,0,0)">
<stop offset="0" style="stop-color:rgb(0%,77.64706%,100%);stop-opacity:1;"/>
<stop offset="1" style="stop-color:rgb(0%,44.705883%,100%);stop-opacity:1;"/>
</linearGradient>
<linearGradient id="linear1" gradientUnits="userSpaceOnUse" x1="106.15625" y1="69.875" x2="106.15625" y2="118.25" gradientTransform="matrix(0.174419,0,0,0.174419,0,0)">
<stop offset="0" style="stop-color:rgb(43.921569%,87.450981%,100%);stop-opacity:1;"/>
<stop offset="1" style="stop-color:rgb(43.921569%,68.627453%,100%);stop-opacity:1;"/>
</linearGradient>
<linearGradient id="linear2" gradientUnits="userSpaceOnUse" x1="65.84375" y1="56.4375" x2="65.84375" y2="118.25" gradientTransform="matrix(0.174419,0,0,0.174419,0,0)">
<stop offset="0" style="stop-color:rgb(43.921569%,87.450981%,100%);stop-opacity:1;"/>
<stop offset="1" style="stop-color:rgb(43.921569%,68.627453%,100%);stop-opacity:1;"/>
</linearGradient>
</defs>
<g id="surface659864">
<path style=" stroke:none;fill-rule:nonzero;fill:url(#linear0);" d="M 23.4375 25.78125 L 6.5625 25.78125 C 5.269531 25.78125 4.21875 24.730469 4.21875 23.4375 L 4.21875 6.5625 C 4.21875 5.269531 5.269531 4.21875 6.5625 4.21875 L 23.4375 4.21875 C 24.730469 4.21875 25.78125 5.269531 25.78125 6.5625 L 25.78125 23.4375 C 25.78125 24.730469 24.730469 25.78125 23.4375 25.78125 Z M 6.5625 5.15625 C 5.789062 5.15625 5.15625 5.789062 5.15625 6.5625 L 5.15625 23.4375 C 5.15625 24.210938 5.789062 24.84375 6.5625 24.84375 L 23.4375 24.84375 C 24.210938 24.84375 24.84375 24.210938 24.84375 23.4375 L 24.84375 6.5625 C 24.84375 5.789062 24.210938 5.15625 23.4375 5.15625 Z M 6.5625 5.15625 "/>
<path style=" stroke:none;fill-rule:nonzero;fill:url(#linear1);" d="M 15.9375 20.15625 L 15.9375 19.21875 C 15.9375 18.960938 16.148438 18.75 16.40625 18.75 L 19.21875 18.75 L 19.21875 17.34375 L 17.8125 17.34375 C 16.777344 17.34375 15.9375 16.503906 15.9375 15.46875 L 15.9375 14.0625 C 15.9375 13.027344 16.777344 12.1875 17.8125 12.1875 L 19.6875 12.1875 C 19.945312 12.1875 20.15625 12.398438 20.15625 12.65625 L 20.15625 13.59375 C 20.15625 13.851562 19.945312 14.0625 19.6875 14.0625 L 17.8125 14.0625 L 17.8125 15.46875 L 19.21875 15.46875 C 20.253906 15.46875 21.09375 16.308594 21.09375 17.34375 L 21.09375 18.75 C 21.09375 19.785156 20.253906 20.625 19.21875 20.625 L 16.40625 20.625 C 16.148438 20.625 15.9375 20.414062 15.9375 20.15625 Z M 15.9375 20.15625 "/>
<path style=" stroke:none;fill-rule:nonzero;fill:url(#linear2);" d="M 10.3125 9.84375 C 9.277344 9.84375 8.4375 10.683594 8.4375 11.71875 L 8.4375 20.15625 C 8.4375 20.414062 8.648438 20.625 8.90625 20.625 L 9.84375 20.625 C 10.101562 20.625 10.3125 20.414062 10.3125 20.15625 L 10.3125 16.875 L 12.65625 16.875 C 13.691406 16.875 14.53125 16.035156 14.53125 15 L 14.53125 11.71875 C 14.53125 10.683594 13.691406 9.84375 12.65625 9.84375 Z M 10.3125 14.53125 L 10.3125 12.1875 C 10.3125 11.929688 10.523438 11.71875 10.78125 11.71875 L 12.1875 11.71875 C 12.445312 11.71875 12.65625 11.929688 12.65625 12.1875 L 12.65625 14.53125 C 12.65625 14.789062 12.445312 15 12.1875 15 L 10.78125 15 C 10.523438 15 10.3125 14.789062 10.3125 14.53125 Z M 10.3125 14.53125 "/>
</g>
</svg>
