<?xml version="1.0" encoding="UTF-8"?>
<svg xmlns="http://www.w3.org/2000/svg" xmlns:xlink="http://www.w3.org/1999/xlink" viewBox="0 0 30 30" width="30px" height="30px">
<defs>
<linearGradient id="linear0" gradientUnits="userSpaceOnUse" x1="72.5625" y1="29.678061" x2="72.5625" y2="39.342312" gradientTransform="matrix(0.46875,0,0,0.46875,0,0)">
<stop offset="0" style="stop-color:rgb(43.921569%,87.450981%,100%);stop-opacity:1;"/>
<stop offset="1" style="stop-color:rgb(43.921569%,68.627453%,100%);stop-opacity:1;"/>
</linearGradient>
<linearGradient id="linear1" gradientUnits="userSpaceOnUse" x1="99.4375" y1="132.031494" x2="99.4375" y2="141.980637" gradientTransform="matrix(0.46875,0,0,0.46875,0,0)">
<stop offset="0" style="stop-color:rgb(43.921569%,87.450981%,100%);stop-opacity:1;"/>
<stop offset="1" style="stop-color:rgb(43.921569%,68.627453%,100%);stop-opacity:1;"/>
</linearGradient>
<linearGradient id="linear2" gradientUnits="userSpaceOnUse" x1="86" y1="17.89875" x2="86" y2="152.846191" gradientTransform="matrix(0.174419,0,0,0.174419,0,0)">
<stop offset="0" style="stop-color:rgb(0%,77.64706%,100%);stop-opacity:1;"/>
<stop offset="1" style="stop-color:rgb(0%,44.705883%,100%);stop-opacity:1;"/>
</linearGradient>
</defs>
<g id="surface679684">
<path style=" stroke:none;fill-rule:nonzero;fill:url(#linear0);" d="M 13.59375 6.09375 C 13.59375 6.613281 13.175781 7.03125 12.65625 7.03125 C 12.136719 7.03125 11.71875 6.613281 11.71875 6.09375 C 11.71875 5.574219 12.136719 5.15625 12.65625 5.15625 C 13.175781 5.15625 13.59375 5.574219 13.59375 6.09375 Z M 13.59375 6.09375 "/>
<path style=" stroke:none;fill-rule:nonzero;fill:url(#linear1);" d="M 18.28125 23.90625 C 18.28125 24.425781 17.863281 24.84375 17.34375 24.84375 C 16.824219 24.84375 16.40625 24.425781 16.40625 23.90625 C 16.40625 23.386719 16.824219 22.96875 17.34375 22.96875 C 17.863281 22.96875 18.28125 23.386719 18.28125 23.90625 Z M 18.28125 23.90625 "/>
<path style=" stroke:none;fill-rule:nonzero;fill:url(#linear2);" d="M 23.90625 9.84375 L 20.625 9.84375 L 20.625 6.09375 C 20.625 4.285156 19.152344 2.8125 17.34375 2.8125 L 12.65625 2.8125 C 10.847656 2.8125 9.375 4.285156 9.375 6.09375 L 9.375 9.84375 L 6.09375 9.84375 C 4.285156 9.84375 2.8125 11.316406 2.8125 13.125 L 2.8125 16.875 C 2.8125 18.683594 4.285156 20.15625 6.09375 20.15625 L 9.375 20.15625 L 9.375 23.90625 C 9.375 25.714844 10.847656 27.1875 12.65625 27.1875 L 17.34375 27.1875 C 19.152344 27.1875 20.625 25.714844 20.625 23.90625 L 20.625 20.15625 L 23.90625 20.15625 C 25.714844 20.15625 27.1875 18.683594 27.1875 16.875 L 27.1875 13.125 C 27.1875 11.316406 25.714844 9.84375 23.90625 9.84375 Z M 6.09375 19.21875 C 4.800781 19.21875 3.75 18.167969 3.75 16.875 L 3.75 14.53125 L 7.03125 14.53125 L 7.03125 13.59375 L 3.75 13.59375 L 3.75 13.125 C 3.75 12.964844 3.765625 12.808594 3.796875 12.65625 L 10.78125 12.65625 L 10.78125 11.71875 L 4.230469 11.71875 C 4.660156 11.152344 5.332031 10.78125 6.09375 10.78125 L 13.59375 10.78125 L 13.59375 9.84375 L 10.3125 9.84375 L 10.3125 6.09375 C 10.3125 4.800781 11.363281 3.75 12.65625 3.75 L 17.34375 3.75 C 18.636719 3.75 19.6875 4.800781 19.6875 6.09375 L 19.6875 13.125 C 19.6875 13.898438 19.054688 14.53125 18.28125 14.53125 L 11.71875 14.53125 C 10.425781 14.53125 9.375 15.582031 9.375 16.875 L 9.375 19.21875 Z M 23.90625 19.21875 L 16.40625 19.21875 L 16.40625 20.15625 L 19.6875 20.15625 L 19.6875 23.90625 C 19.6875 25.199219 18.636719 26.25 17.34375 26.25 L 12.65625 26.25 C 11.363281 26.25 10.3125 25.199219 10.3125 23.90625 L 10.3125 16.875 C 10.3125 16.101562 10.945312 15.46875 11.71875 15.46875 L 18.28125 15.46875 C 19.574219 15.46875 20.625 14.417969 20.625 13.125 L 20.625 10.78125 L 23.90625 10.78125 C 25.199219 10.78125 26.25 11.832031 26.25 13.125 L 26.25 15.46875 L 22.96875 15.46875 L 22.96875 16.40625 L 26.25 16.40625 L 26.25 16.875 C 26.25 17.035156 26.234375 17.191406 26.203125 17.34375 L 19.21875 17.34375 L 19.21875 18.28125 L 25.769531 18.28125 C 25.339844 18.847656 24.667969 19.21875 23.90625 19.21875 Z M 23.90625 19.21875 "/>
</g>
</svg>
