<?xml version="1.0" encoding="UTF-8"?>
<svg xmlns="http://www.w3.org/2000/svg" xmlns:xlink="http://www.w3.org/1999/xlink" viewBox="0 0 30 30" width="30px" height="30px">
<defs>
<linearGradient id="linear0" gradientUnits="userSpaceOnUse" x1="86" y1="67.759941" x2="86" y2="98.690376" gradientTransform="matrix(0.46875,0,0,0.46875,0,0)">
<stop offset="0" style="stop-color:rgb(43.921569%,87.450981%,100%);stop-opacity:1;"/>
<stop offset="1" style="stop-color:rgb(43.921569%,68.627453%,100%);stop-opacity:1;"/>
</linearGradient>
<linearGradient id="linear1" gradientUnits="userSpaceOnUse" x1="86" y1="19.95738" x2="86" y2="143.619995" gradientTransform="matrix(0.174419,0,0,0.174419,0,0)">
<stop offset="0" style="stop-color:rgb(0%,77.64706%,100%);stop-opacity:1;"/>
<stop offset="1" style="stop-color:rgb(0%,44.705883%,100%);stop-opacity:1;"/>
</linearGradient>
</defs>
<g id="surface676639">
<path style=" stroke:none;fill-rule:nonzero;fill:url(#linear0);" d="M 17.8125 15 C 17.8125 16.554688 16.554688 17.8125 15 17.8125 C 13.445312 17.8125 12.1875 16.554688 12.1875 15 C 12.1875 13.445312 13.445312 12.1875 15 12.1875 C 16.554688 12.1875 17.8125 13.445312 17.8125 15 Z M 17.8125 15 "/>
<path style=" stroke:none;fill-rule:nonzero;fill:url(#linear1);" d="M 27.1875 15 C 27.1875 13.238281 25.199219 11.710938 22.101562 10.785156 C 22.203125 10.300781 22.289062 9.828125 22.347656 9.371094 C 22.652344 6.800781 22.121094 5 20.839844 4.304688 C 19.5625 3.605469 17.757812 4.128906 15.761719 5.777344 C 15.507812 5.988281 15.253906 6.21875 15 6.457031 C 14.746094 6.21875 14.492188 5.988281 14.238281 5.777344 C 12.242188 4.128906 10.4375 3.605469 9.160156 4.304688 C 7.878906 5 7.347656 6.800781 7.652344 9.371094 C 7.707031 9.828125 7.796875 10.300781 7.898438 10.785156 C 4.800781 11.710938 2.8125 13.238281 2.8125 15 C 2.8125 16.761719 4.800781 18.289062 7.898438 19.214844 C 7.796875 19.699219 7.710938 20.171875 7.652344 20.628906 C 7.347656 23.199219 7.878906 25 9.160156 25.695312 C 9.527344 25.898438 9.941406 26 10.390625 26 C 11.496094 26 12.816406 25.394531 14.238281 24.222656 C 14.492188 24.011719 14.746094 23.78125 15 23.542969 C 15.253906 23.785156 15.507812 24.011719 15.761719 24.222656 C 17.183594 25.394531 18.503906 26 19.609375 26 C 20.058594 26 20.472656 25.898438 20.839844 25.695312 C 22.121094 25 22.652344 23.199219 22.347656 20.628906 C 22.292969 20.171875 22.203125 19.699219 22.101562 19.214844 C 25.199219 18.289062 27.1875 16.761719 27.1875 15 Z M 16.359375 6.5 C 18.015625 5.132812 19.484375 4.628906 20.390625 5.125 C 21.296875 5.621094 21.671875 7.128906 21.414062 9.257812 C 21.367188 9.671875 21.285156 10.101562 21.195312 10.539062 C 20.203125 10.296875 19.117188 10.109375 17.964844 9.992188 C 17.230469 8.925781 16.457031 7.953125 15.664062 7.117188 C 15.894531 6.898438 16.128906 6.691406 16.359375 6.5 Z M 18.703125 17.023438 C 18.304688 17.753906 17.878906 18.453125 17.4375 19.117188 C 16.664062 19.183594 15.847656 19.21875 15 19.21875 C 14.152344 19.21875 13.335938 19.183594 12.5625 19.117188 C 12.121094 18.453125 11.695312 17.753906 11.296875 17.023438 C 10.929688 16.347656 10.59375 15.671875 10.292969 15 C 10.59375 14.328125 10.929688 13.652344 11.296875 12.976562 C 11.695312 12.246094 12.121094 11.546875 12.5625 10.882812 C 13.335938 10.816406 14.152344 10.78125 15 10.78125 C 15.847656 10.78125 16.664062 10.816406 17.4375 10.882812 C 17.878906 11.546875 18.304688 12.246094 18.703125 12.976562 C 19.070312 13.652344 19.40625 14.328125 19.707031 15 C 19.40625 15.671875 19.070312 16.347656 18.703125 17.023438 Z M 20.191406 16.164062 C 20.511719 16.980469 20.773438 17.78125 20.976562 18.554688 C 20.253906 18.730469 19.472656 18.878906 18.628906 18.988281 C 18.9375 18.496094 19.238281 17.996094 19.523438 17.472656 C 19.761719 17.039062 19.980469 16.601562 20.191406 16.164062 Z M 15 22.21875 C 14.402344 21.589844 13.816406 20.878906 13.253906 20.105469 C 13.820312 20.136719 14.40625 20.15625 15 20.15625 C 15.59375 20.15625 16.179688 20.136719 16.746094 20.105469 C 16.183594 20.878906 15.597656 21.589844 15 22.21875 Z M 11.367188 18.988281 C 10.527344 18.878906 9.746094 18.730469 9.019531 18.554688 C 9.226562 17.78125 9.488281 16.980469 9.808594 16.164062 C 10.019531 16.601562 10.238281 17.039062 10.472656 17.472656 C 10.757812 17.996094 11.0625 18.496094 11.367188 18.988281 Z M 9.808594 13.835938 C 9.488281 13.019531 9.226562 12.21875 9.023438 11.445312 C 9.746094 11.269531 10.527344 11.121094 11.371094 11.011719 C 11.0625 11.503906 10.761719 12.003906 10.476562 12.527344 C 10.238281 12.960938 10.019531 13.398438 9.808594 13.835938 Z M 15 7.78125 C 15.597656 8.410156 16.183594 9.121094 16.746094 9.894531 C 16.179688 9.863281 15.59375 9.84375 15 9.84375 C 14.40625 9.84375 13.820312 9.863281 13.253906 9.894531 C 13.816406 9.121094 14.402344 8.410156 15 7.78125 Z M 19.527344 12.527344 C 19.242188 12.007812 18.9375 11.503906 18.632812 11.011719 C 19.472656 11.121094 20.253906 11.269531 20.980469 11.445312 C 20.773438 12.21875 20.511719 13.019531 20.191406 13.835938 C 19.980469 13.398438 19.761719 12.960938 19.527344 12.527344 Z M 8.585938 9.257812 C 8.328125 7.128906 8.703125 5.621094 9.609375 5.125 C 9.835938 5 10.101562 4.941406 10.398438 4.941406 C 11.269531 4.941406 12.402344 5.476562 13.640625 6.5 C 13.871094 6.691406 14.105469 6.898438 14.335938 7.117188 C 13.542969 7.953125 12.769531 8.925781 12.035156 9.992188 C 10.882812 10.109375 9.796875 10.296875 8.804688 10.539062 C 8.714844 10.101562 8.636719 9.671875 8.585938 9.257812 Z M 3.75 15 C 3.75 13.78125 5.375 12.515625 8.117188 11.691406 C 8.402344 12.757812 8.789062 13.871094 9.277344 15 C 8.789062 16.128906 8.402344 17.242188 8.117188 18.308594 C 5.375 17.484375 3.75 16.21875 3.75 15 Z M 13.640625 23.5 C 11.984375 24.867188 10.515625 25.371094 9.609375 24.875 C 8.703125 24.378906 8.328125 22.871094 8.585938 20.742188 C 8.632812 20.328125 8.714844 19.898438 8.804688 19.460938 C 9.796875 19.703125 10.882812 19.890625 12.035156 20.007812 C 12.769531 21.074219 13.542969 22.046875 14.335938 22.882812 C 14.105469 23.101562 13.871094 23.308594 13.640625 23.5 Z M 21.414062 20.742188 C 21.671875 22.871094 21.296875 24.378906 20.390625 24.875 C 19.484375 25.371094 18.015625 24.867188 16.359375 23.5 C 16.128906 23.308594 15.894531 23.101562 15.664062 22.882812 C 16.457031 22.046875 17.230469 21.074219 17.964844 20.007812 C 19.117188 19.890625 20.203125 19.703125 21.195312 19.460938 C 21.285156 19.898438 21.363281 20.328125 21.414062 20.742188 Z M 21.882812 18.308594 C 21.597656 17.242188 21.210938 16.128906 20.722656 15 C 21.210938 13.871094 21.597656 12.757812 21.882812 11.691406 C 24.625 12.515625 26.25 13.78125 26.25 15 C 26.25 16.21875 24.625 17.484375 21.882812 18.308594 Z M 21.882812 18.308594 "/>
</g>
</svg>
