<?xml version="1.0" encoding="UTF-8"?>
<svg xmlns="http://www.w3.org/2000/svg" xmlns:xlink="http://www.w3.org/1999/xlink" viewBox="0 0 30 30" width="30px" height="30px">
<defs>
<linearGradient id="linear0" gradientUnits="userSpaceOnUse" x1="77.528999" y1="43.056438" x2="77.528999" y2="78.321808" gradientTransform="matrix(0.174419,0,0,0.174419,0,0)">
<stop offset="0" style="stop-color:rgb(43.921569%,87.450981%,100%);stop-opacity:1;"/>
<stop offset="1" style="stop-color:rgb(43.921569%,68.627453%,100%);stop-opacity:1;"/>
</linearGradient>
<linearGradient id="linear1" gradientUnits="userSpaceOnUse" x1="44.34375" y1="78.281502" x2="44.34375" y2="137.078613" gradientTransform="matrix(0.174419,0,0,0.174419,0,0)">
<stop offset="0" style="stop-color:rgb(43.921569%,87.450981%,100%);stop-opacity:1;"/>
<stop offset="1" style="stop-color:rgb(43.921569%,68.627453%,100%);stop-opacity:1;"/>
</linearGradient>
<linearGradient id="linear2" gradientUnits="userSpaceOnUse" x1="85.986557" y1="21.55644" x2="85.986557" y2="146.030685" gradientTransform="matrix(0.174419,0,0,0.174419,0,0)">
<stop offset="0" style="stop-color:rgb(0%,77.64706%,100%);stop-opacity:1;"/>
<stop offset="1" style="stop-color:rgb(0%,44.705883%,100%);stop-opacity:1;"/>
</linearGradient>
</defs>
<g id="surface1843324">
<path style=" stroke:none;fill-rule:nonzero;fill:url(#linear0);" d="M 13.886719 6.652344 L 11.660156 6.652344 C 10.738281 6.652344 9.628906 7.175781 9.375 8.4375 C 9.375 8.4375 8.4375 12.738281 11.945312 12.738281 C 11.464844 12.617188 11.105469 12.183594 11.105469 11.660156 L 11.105469 9.433594 C 11.105469 8.820312 11.601562 8.320312 12.21875 8.320312 L 13.332031 8.320312 C 14.253906 8.320312 15 9.070312 15 9.992188 L 15 10.546875 C 15 11.570312 14.308594 12.421875 13.367188 12.683594 L 10.96875 15.355469 L 14.582031 14.820312 L 17.335938 12.535156 C 17.617188 11.976562 17.785156 11.324219 17.785156 10.546875 C 17.78125 8.394531 16.039062 6.652344 13.886719 6.652344 Z M 13.886719 6.652344 "/>
<path style=" stroke:none;fill-rule:nonzero;fill:url(#linear1);" d="M 6.09375 10.78125 L 6.09375 24.84375 L 8.4375 26.25 L 9.375 15.46875 Z M 6.09375 10.78125 "/>
<path style=" stroke:none;fill-rule:nonzero;fill:url(#linear2);" d="M 24.363281 26.179688 C 24.378906 26.074219 24.359375 25.964844 24.292969 25.863281 C 22.171875 22.816406 18.808594 17.570312 18.808594 16.460938 C 18.808594 15.917969 19.101562 15.535156 19.503906 15 C 20.152344 14.152344 21.035156 12.992188 21.035156 10.546875 C 21.035156 7.242188 19.355469 5.054688 16.042969 4.042969 C 14.171875 3.476562 11.761719 3.398438 9.433594 3.398438 L 6.09375 3.398438 C 5.835938 3.398438 5.625 3.609375 5.625 3.867188 L 5.625 25.019531 C 5.625 25.195312 5.726562 25.359375 5.882812 25.4375 C 6.597656 25.796875 7.308594 26.152344 8.023438 26.507812 C 8.0625 26.527344 8.101562 26.546875 8.140625 26.5625 C 8.242188 26.605469 8.363281 26.613281 8.464844 26.578125 L 11.472656 25.597656 C 11.890625 25.457031 12.171875 25.066406 12.171875 24.625 L 12.1875 18.910156 C 12.1875 18.820312 12.273438 18.820312 12.273438 18.820312 C 12.351562 18.820312 12.378906 18.839844 12.5 18.960938 C 14.078125 20.539062 15.253906 22.476562 16.109375 23.890625 C 16.433594 24.421875 16.714844 24.882812 16.949219 25.21875 C 17.292969 25.699219 17.839844 26.015625 18.488281 26.105469 C 20.011719 26.320312 23.714844 26.589844 23.871094 26.601562 C 24.128906 26.617188 24.332031 26.414062 24.363281 26.179688 Z M 15.769531 4.941406 C 18.679688 5.828125 20.097656 7.664062 20.097656 10.546875 C 20.097656 12.675781 19.386719 13.609375 18.757812 14.433594 C 18.304688 15.035156 17.871094 15.601562 17.871094 16.460938 C 17.871094 17.621094 19.984375 21.078125 21.664062 23.644531 C 20.972656 23 20.195312 22.214844 19.386719 21.300781 L 18.601562 20.40625 C 16.871094 18.433594 15.378906 16.730469 14.703125 16.28125 C 14.324219 16.027344 13.875 15.832031 13.398438 15.675781 C 15.105469 15.273438 16.902344 14.441406 17.753906 12.742188 C 18.085938 12.085938 18.25 11.347656 18.25 10.546875 C 18.25 8.140625 16.292969 6.179688 13.886719 6.179688 L 11.660156 6.179688 C 10.511719 6.179688 9.214844 6.851562 8.917969 8.335938 C 8.894531 8.4375 8.402344 10.769531 9.539062 12.183594 C 10.074219 12.84375 10.859375 13.1875 11.875 13.203125 C 11.90625 13.207031 11.933594 13.210938 11.964844 13.214844 C 11.808594 13.417969 11.585938 13.664062 11.269531 13.960938 C 10.910156 14.296875 10.003906 14.765625 9.480469 15.015625 C 8.855469 14.507812 6.652344 12.144531 6.566406 4.335938 L 9.433594 4.335938 C 11.6875 4.335938 14.015625 4.410156 15.769531 4.941406 Z M 13.085938 13.222656 C 13.09375 13.222656 13.101562 13.21875 13.105469 13.21875 C 14.433594 13.054688 15.46875 11.921875 15.46875 10.546875 L 15.46875 9.988281 C 15.46875 8.8125 14.507812 7.851562 13.328125 7.851562 L 12.214844 7.851562 C 11.34375 7.851562 10.632812 8.5625 10.632812 9.433594 L 10.632812 11.660156 C 10.632812 11.753906 10.644531 11.847656 10.664062 11.9375 C 10.515625 11.839844 10.382812 11.734375 10.269531 11.59375 C 9.414062 10.535156 9.828125 8.554688 9.835938 8.527344 C 10.058594 7.414062 11.085938 7.117188 11.660156 7.117188 L 13.886719 7.117188 C 15.777344 7.117188 17.3125 8.65625 17.3125 10.546875 C 17.3125 11.210938 17.183594 11.792969 16.917969 12.324219 C 16.917969 12.324219 16.917969 12.324219 16.914062 12.324219 C 15.929688 14.285156 13.25 14.871094 11.390625 15.039062 C 11.589844 14.90625 11.773438 14.773438 11.910156 14.648438 C 12.59375 14.007812 12.925781 13.523438 13.085938 13.222656 Z M 12.070312 12.285156 C 11.785156 12.222656 11.574219 11.964844 11.574219 11.660156 L 11.574219 9.433594 C 11.574219 9.078125 11.863281 8.789062 12.21875 8.789062 L 13.332031 8.789062 C 13.992188 8.789062 14.53125 9.328125 14.53125 9.992188 L 14.53125 10.546875 C 14.53125 10.554688 14.53125 10.5625 14.527344 10.578125 C 14.511719 11.414062 13.90625 12.109375 13.121094 12.269531 C 13.007812 12.292969 12.894531 12.304688 12.773438 12.304688 C 12.773438 12.304688 12.21875 12.304688 12.21875 12.304688 C 12.171875 12.304688 12.117188 12.300781 12.070312 12.285156 Z M 7.925781 25.410156 L 6.5625 24.730469 L 6.5625 11.644531 C 7.351562 14.289062 8.425781 15.390625 8.9375 15.785156 Z M 18.621094 25.175781 C 18.226562 25.121094 17.90625 24.941406 17.714844 24.671875 C 17.496094 24.367188 17.226562 23.921875 16.914062 23.402344 C 16.03125 21.949219 14.824219 19.957031 13.164062 18.296875 C 13.019531 18.152344 12.75 17.882812 12.273438 17.882812 C 11.710938 17.882812 11.25 18.34375 11.25 18.910156 L 11.234375 24.625 C 11.234375 24.660156 11.210938 24.695312 11.179688 24.707031 L 8.863281 25.460938 L 9.855469 16.039062 C 9.871094 16.039062 9.894531 16.039062 9.914062 16.039062 C 10.867188 16.085938 13.011719 16.277344 14.183594 17.058594 C 14.753906 17.441406 16.425781 19.34375 17.894531 21.023438 L 18.683594 21.917969 C 20.121094 23.550781 21.46875 24.773438 22.390625 25.542969 C 21.15625 25.445312 19.492188 25.300781 18.621094 25.175781 Z M 18.621094 25.175781 "/>
</g>
</svg>
