<?xml version="1.0" encoding="UTF-8"?>
<svg xmlns="http://www.w3.org/2000/svg" xmlns:xlink="http://www.w3.org/1999/xlink" viewBox="0 0 30 30" width="30px" height="30px">
<defs>
<linearGradient id="linear0" gradientUnits="userSpaceOnUse" x1="74.682938" y1="22.171881" x2="74.682938" y2="155.43425" gradientTransform="matrix(0.174419,0,0,0.174419,0,0)">
<stop offset="0" style="stop-color:rgb(0%,77.64706%,100%);stop-opacity:1;"/>
<stop offset="1" style="stop-color:rgb(0%,44.705883%,100%);stop-opacity:1;"/>
</linearGradient>
<linearGradient id="linear1" gradientUnits="userSpaceOnUse" x1="64.435501" y1="22.171881" x2="64.435501" y2="155.43425" gradientTransform="matrix(0.174419,0,0,0.174419,0,0)">
<stop offset="0" style="stop-color:rgb(0%,77.64706%,100%);stop-opacity:1;"/>
<stop offset="1" style="stop-color:rgb(0%,44.705883%,100%);stop-opacity:1;"/>
</linearGradient>
<linearGradient id="linear2" gradientUnits="userSpaceOnUse" x1="88.808441" y1="48.16" x2="88.808441" y2="149.854996" gradientTransform="matrix(0.174419,0,0,0.174419,0,0)">
<stop offset="0" style="stop-color:rgb(43.921569%,87.450981%,100%);stop-opacity:1;"/>
<stop offset="1" style="stop-color:rgb(43.921569%,68.627453%,100%);stop-opacity:1;"/>
</linearGradient>
<linearGradient id="linear3" gradientUnits="userSpaceOnUse" x1="87.236252" y1="22.171881" x2="87.236252" y2="155.43425" gradientTransform="matrix(0.174419,0,0,0.174419,0,0)">
<stop offset="0" style="stop-color:rgb(0%,77.64706%,100%);stop-opacity:1;"/>
<stop offset="1" style="stop-color:rgb(0%,44.705883%,100%);stop-opacity:1;"/>
</linearGradient>
</defs>
<g id="surface32280883">
<path style=" stroke:none;fill-rule:nonzero;fill:url(#linear0);" d="M 6.59375 12.246094 L 7.917969 15.234375 L 12.242188 14.355469 L 13.484375 16.40625 L 19.457031 15.097656 L 15.808594 10.664062 Z M 13.9375 15.347656 L 12.703125 13.308594 L 8.46875 14.167969 L 7.9375 12.964844 L 15.429688 11.683594 L 17.761719 14.511719 Z M 13.9375 15.347656 "/>
<path style=" stroke:none;fill-rule:nonzero;fill:url(#linear1);" d="M 7.648438 18.175781 L 8.699219 21.652344 L 14.828125 20.179688 L 13.132812 17.089844 Z M 9.339844 20.535156 L 8.84375 18.898438 L 12.640625 18.144531 L 13.417969 19.554688 Z M 9.339844 20.535156 "/>
<path style=" stroke:none;fill-rule:nonzero;fill:url(#linear2);" d="M 18.238281 11.582031 L 15.289062 8.398438 L 5.742188 9.84375 L 6.898438 17.300781 L 9.734375 26.136719 L 23.757812 22.109375 L 25.238281 10.28125 Z M 8.699219 21.652344 L 7.644531 18.179688 L 13.128906 17.089844 L 14.832031 20.179688 Z M 13.480469 16.40625 L 12.242188 14.359375 L 7.917969 15.234375 L 6.59375 12.242188 L 15.804688 10.664062 L 19.457031 15.097656 Z M 13.480469 16.40625 "/>
<path style=" stroke:none;fill-rule:nonzero;fill:url(#linear3);" d="M 18.328125 3.726562 L 4.152344 5.710938 L 5.976562 17.484375 L 9.125 27.296875 L 24.609375 22.835938 L 26.28125 9.480469 Z M 18.066406 4.710938 L 24.679688 9.433594 L 18.570312 10.558594 L 15.640625 7.402344 L 5.597656 8.917969 L 5.222656 6.507812 Z M 23.753906 22.113281 L 9.738281 26.140625 L 6.898438 17.304688 L 5.742188 9.84375 L 15.289062 8.402344 L 18.238281 11.582031 L 25.234375 10.277344 Z M 23.753906 22.113281 "/>
</g>
</svg>
