<?xml version="1.0" encoding="UTF-8"?>
<svg xmlns="http://www.w3.org/2000/svg" xmlns:xlink="http://www.w3.org/1999/xlink" viewBox="0 0 30 30" width="30px" height="30px">
<defs>
<linearGradient id="linear0" gradientUnits="userSpaceOnUse" x1="118.473061" y1="75.25" x2="118.473061" y2="120.537064" gradientTransform="matrix(0.174419,0,0,0.174419,0,0)">
<stop offset="0" style="stop-color:rgb(43.921569%,87.450981%,100%);stop-opacity:1;"/>
<stop offset="1" style="stop-color:rgb(43.921569%,68.627453%,100%);stop-opacity:1;"/>
</linearGradient>
<linearGradient id="linear1" gradientUnits="userSpaceOnUse" x1="86" y1="24.1875" x2="86" y2="150.5" gradientTransform="matrix(0.174419,0,0,0.174419,0,0)">
<stop offset="0" style="stop-color:rgb(0%,77.64706%,100%);stop-opacity:1;"/>
<stop offset="1" style="stop-color:rgb(0%,44.705883%,100%);stop-opacity:1;"/>
</linearGradient>
<linearGradient id="linear2" gradientUnits="userSpaceOnUse" x1="96.964996" y1="126.3125" x2="96.964996" y2="142.544998" gradientTransform="matrix(0.174419,0,0,0.174419,0,0)">
<stop offset="0" style="stop-color:rgb(43.921569%,87.450981%,100%);stop-opacity:1;"/>
<stop offset="1" style="stop-color:rgb(43.921569%,68.627453%,100%);stop-opacity:1;"/>
</linearGradient>
<linearGradient id="linear3" gradientUnits="userSpaceOnUse" x1="59.125" y1="56.4375" x2="59.125" y2="96.75" gradientTransform="matrix(0.174419,0,0,0.174419,0,0)">
<stop offset="0" style="stop-color:rgb(43.921569%,87.450981%,100%);stop-opacity:1;"/>
<stop offset="1" style="stop-color:rgb(43.921569%,68.627453%,100%);stop-opacity:1;"/>
</linearGradient>
</defs>
<g id="surface694389">
<path style=" stroke:none;fill-rule:nonzero;fill:url(#linear0);" d="M 23.90625 15.46875 L 23.90625 14.53125 L 20.15625 14.53125 L 20.15625 13.125 L 19.21875 13.125 L 19.21875 14.53125 L 17.421875 14.53125 L 17.8125 15.46875 L 21.847656 15.46875 C 21.5625 15.980469 21.082031 16.734375 20.390625 17.542969 C 19.96875 17.074219 19.542969 16.550781 19.136719 15.964844 L 18.363281 16.5 C 18.816406 17.148438 19.289062 17.726562 19.75 18.238281 C 19.503906 18.484375 19.234375 18.734375 18.945312 18.976562 L 19.550781 19.695312 C 19.851562 19.441406 20.136719 19.179688 20.398438 18.917969 C 21.75 20.265625 22.886719 20.980469 22.957031 21.023438 L 23.449219 20.226562 C 23.433594 20.214844 22.335938 19.527344 21.039062 18.230469 C 22.0625 17.054688 22.664062 15.96875 22.914062 15.46875 Z M 23.90625 15.46875 "/>
<path style=" stroke:none;fill-rule:nonzero;fill:url(#linear1);" d="M 24.84375 8.4375 L 15.53125 8.4375 L 14.03125 4.519531 C 13.964844 4.339844 13.785156 4.21875 13.59375 4.21875 L 5.15625 4.21875 C 4.382812 4.21875 3.75 4.851562 3.75 5.625 L 3.75 20.625 C 3.75 21.398438 4.382812 22.03125 5.15625 22.03125 L 14.195312 22.03125 L 15.492188 25.929688 C 15.542969 26.089844 15.679688 26.207031 15.84375 26.242188 C 15.875 26.246094 15.90625 26.25 15.9375 26.25 L 24.84375 26.25 C 25.617188 26.25 26.25 25.617188 26.25 24.84375 L 26.25 9.84375 C 26.25 9.070312 25.617188 8.4375 24.84375 8.4375 Z M 5.15625 21.09375 C 4.898438 21.09375 4.6875 20.882812 4.6875 20.625 L 4.6875 5.625 C 4.6875 5.367188 4.898438 5.15625 5.15625 5.15625 L 13.269531 5.15625 L 19.007812 21.09375 Z M 15.183594 22.03125 L 18.640625 22.03125 L 16.125 24.863281 Z M 25.3125 24.84375 C 25.3125 25.101562 25.101562 25.3125 24.84375 25.3125 L 16.984375 25.3125 L 20.039062 21.871094 L 20.035156 21.871094 C 20.046875 21.859375 20.0625 21.84375 20.070312 21.828125 C 20.160156 21.703125 20.179688 21.539062 20.125 21.394531 L 15.886719 9.375 L 24.84375 9.375 C 25.101562 9.375 25.3125 9.585938 25.3125 9.84375 Z M 25.3125 24.84375 "/>
<path style=" stroke:none;fill-rule:nonzero;fill:url(#linear2);" d="M 18.640625 22.03125 L 16.125 24.863281 L 15.183594 22.03125 Z M 18.640625 22.03125 "/>
<path style=" stroke:none;fill-rule:nonzero;fill:url(#linear3);" d="M 11.332031 15 L 9.285156 15 L 8.8125 16.875 L 7.5 16.875 L 9.734375 9.84375 L 10.878906 9.84375 L 13.125 16.875 L 11.808594 16.875 Z M 9.582031 14.0625 L 11.035156 14.0625 L 10.304688 11.382812 Z M 9.582031 14.0625 "/>
</g>
</svg>
