<?xml version="1.0" encoding="UTF-8"?>
<svg xmlns="http://www.w3.org/2000/svg" xmlns:xlink="http://www.w3.org/1999/xlink" viewBox="0 0 30 30" width="30px" height="30px">
<defs>
<linearGradient id="linear0" gradientUnits="userSpaceOnUse" x1="79.009811" y1="56.660561" x2="79.009811" y2="119.147629" gradientTransform="matrix(0.174419,0,0,0.174419,0,0)">
<stop offset="0" style="stop-color:rgb(43.921569%,87.450981%,100%);stop-opacity:1;"/>
<stop offset="1" style="stop-color:rgb(43.921569%,68.627453%,100%);stop-opacity:1;"/>
</linearGradient>
<linearGradient id="linear1" gradientUnits="userSpaceOnUse" x1="111.461372" y1="56.660561" x2="111.461372" y2="119.147629" gradientTransform="matrix(0.174419,0,0,0.174419,0,0)">
<stop offset="0" style="stop-color:rgb(43.921569%,87.450981%,100%);stop-opacity:1;"/>
<stop offset="1" style="stop-color:rgb(43.921569%,68.627453%,100%);stop-opacity:1;"/>
</linearGradient>
<linearGradient id="linear2" gradientUnits="userSpaceOnUse" x1="80.560501" y1="56.660561" x2="80.560501" y2="119.147629" gradientTransform="matrix(0.174419,0,0,0.174419,0,0)">
<stop offset="0" style="stop-color:rgb(43.921569%,87.450981%,100%);stop-opacity:1;"/>
<stop offset="1" style="stop-color:rgb(43.921569%,68.627453%,100%);stop-opacity:1;"/>
</linearGradient>
<linearGradient id="linear3" gradientUnits="userSpaceOnUse" x1="80.178879" y1="21.405939" x2="81.192062" y2="154.206055" gradientTransform="matrix(0.174419,0,0,0.174419,0,0)">
<stop offset="0" style="stop-color:rgb(0%,77.64706%,100%);stop-opacity:1;"/>
<stop offset="1" style="stop-color:rgb(0%,44.705883%,100%);stop-opacity:1;"/>
</linearGradient>
</defs>
<g id="surface682863">
<path style=" stroke:none;fill-rule:nonzero;fill:url(#linear0);" d="M 15.46875 14.53125 L 18.144531 9.273438 L 13.085938 10.199219 L 9.417969 14.53125 Z M 15.46875 14.53125 "/>
<path style=" stroke:none;fill-rule:nonzero;fill:url(#linear1);" d="M 19.90625 10.371094 L 17.34375 15.46875 L 20.246094 19.933594 L 21.539062 15.148438 Z M 19.90625 10.371094 "/>
<path style=" stroke:none;fill-rule:nonzero;fill:url(#linear2);" d="M 9.574219 16.40625 L 13.46875 20.242188 L 18.53125 21.011719 L 15.46875 16.40625 Z M 9.574219 16.40625 "/>
<path style=" stroke:none;fill-rule:nonzero;fill:url(#linear3);" d="M 22.246094 25.78125 C 22.191406 25.78125 22.136719 25.777344 22.078125 25.765625 L 13.902344 24.363281 C 13.585938 24.308594 13.3125 24.085938 13.191406 23.785156 L 12.492188 22.03125 L 10.117188 22.03125 C 9.875 22.03125 9.648438 21.941406 9.472656 21.773438 L 3.570312 16.148438 C 3.203125 15.796875 3.183594 15.207031 3.53125 14.832031 L 9.15625 8.738281 C 9.332031 8.546875 9.582031 8.4375 9.84375 8.4375 L 12.023438 8.4375 L 12.722656 6.683594 C 12.835938 6.402344 13.078125 6.191406 13.371094 6.121094 L 21.066406 4.246094 C 21.527344 4.136719 22.019531 4.402344 22.171875 4.847656 L 24.792969 12.347656 C 24.871094 12.582031 24.859375 12.835938 24.753906 13.058594 L 23.5625 15.078125 L 24.691406 16.726562 C 24.832031 16.957031 24.875 17.199219 24.820312 17.4375 L 23.160156 25.042969 C 23.070312 25.472656 22.683594 25.78125 22.246094 25.78125 Z M 22.246094 24.84375 L 22.246094 25.3125 Z M 13.546875 22.148438 L 14.0625 23.4375 L 22.246094 24.84375 L 23.90625 17.238281 L 23.195312 16.199219 L 21.453125 22.648438 L 16.804688 15.5 L 20.863281 7.429688 L 23.121094 13.984375 L 23.925781 12.617188 L 21.289062 5.15625 L 13.59375 7.03125 L 13.089844 8.292969 L 19.792969 7.0625 L 15.757812 15 L 6.566406 15 L 11.328125 9.375 L 9.84375 9.375 L 4.21875 15.46875 L 10.117188 21.09375 L 11.664062 21.09375 L 6.433594 15.9375 L 15.71875 15.9375 L 20.546875 23.199219 Z M 13.144531 21.140625 L 18.59375 21.957031 L 15.21875 16.875 L 8.722656 16.875 L 13 21.09375 L 13.066406 21.125 Z M 17.882812 15.4375 L 21.097656 20.378906 L 22.5 15.183594 L 22.507812 15.109375 L 22.496094 15.046875 L 20.699219 9.835938 Z M 8.589844 14.0625 L 15.179688 14.0625 L 18.097656 8.328125 L 12.589844 9.335938 Z M 8.589844 14.0625 "/>
</g>
</svg>
